<svg width="39" height="24" viewBox="0 0 39 24" fill="none" xmlns="http://www.w3.org/2000/svg">
<rect x="0.5" y="0.5" width="37.4" height="23" rx="1.5" fill="white"/>
<rect x="0.5" y="0.5" width="37.4" height="23" rx="1.5" stroke="#DDDDDD"/>
<path fill-rule="evenodd" clip-rule="evenodd" d="M31.0004 15.9207V15.6661H30.9345L30.8579 15.8413L30.7813 15.6661H30.7149V15.9207H30.762V15.7288L30.8335 15.8944H30.8823L30.9538 15.7283V15.9207H31.0009H31.0004ZM30.5798 15.9207V15.7094H30.6651V15.6665H30.4483V15.7094H30.5336V15.9207H30.5798ZM31.0143 12.135C31.0143 16.0757 27.8278 19.27 23.8968 19.27C19.9668 19.27 16.7803 16.0757 16.7803 12.135C16.7803 8.19479 19.9668 5 23.8973 5C27.8278 5 31.0143 8.19479 31.0143 12.135Z" fill="#F79F1A"/>
<path fill-rule="evenodd" clip-rule="evenodd" d="M22.234 12.135C22.234 16.0757 19.0475 19.27 15.117 19.27C11.1869 19.27 8 16.0757 8 12.135C8 8.19479 11.1865 5 15.1175 5C19.0475 5 22.234 8.19479 22.234 12.135Z" fill="#EA001B"/>
<path fill-rule="evenodd" clip-rule="evenodd" d="M19.5069 6.51794C18.6561 7.18581 17.9685 8.03856 17.4962 9.01158C17.0239 9.9846 16.7792 11.0524 16.7808 12.134C16.7808 14.4141 17.8463 16.445 19.5069 17.7514C21.1675 16.445 22.233 14.4141 22.233 12.134C22.2346 11.0524 21.9899 9.9846 21.5176 9.01158C21.0453 8.03856 20.3577 7.18581 19.5069 6.51794Z" fill="#FF5F01"/>
</svg>
