<svg width="58" height="58" viewBox="0 0 58 58" fill="none" xmlns="http://www.w3.org/2000/svg">
<path d="M38.6666 16.9167H14.4999C13.1652 16.9167 12.0833 17.9986 12.0833 19.3333V54.5628C12.0833 55.022 12.5754 55.3134 12.978 55.0925L25.9186 47.9932C26.0955 47.8962 26.3091 47.8938 26.4881 47.987L40.2002 55.1237C40.6024 55.333 41.0833 55.0412 41.0833 54.5878V19.3333C41.0833 17.9986 40.0013 16.9167 38.6666 16.9167Z" fill="#5BBBFC"/>
<path d="M43.4999 7.25H19.3333C17.9986 7.25 16.9166 8.33198 16.9166 9.66667V44.8961C16.9166 45.3554 17.4087 45.6467 17.8113 45.4258L30.7519 38.3265C30.9288 38.2295 31.1425 38.2272 31.3214 38.3203L45.0335 45.457C45.4357 45.6664 45.9166 45.3745 45.9166 44.9211V9.66667C45.9166 8.33198 44.8346 7.25 43.4999 7.25Z" fill="#6FC400"/>
<path d="M41.0833 43.4011V19.3333C41.0833 17.9986 40.0013 16.9167 38.6666 16.9167H16.9166V44.8961C16.9166 45.3554 17.4087 45.6467 17.8113 45.4258L30.7519 38.3265C30.9288 38.2295 31.1425 38.2272 31.3214 38.3203L41.0833 43.4011Z" fill="white"/>
<path d="M27.7916 33.747C27.7916 34.0807 28.0621 34.3512 28.3958 34.3512H29.6041C29.9378 34.3512 30.2083 34.0807 30.2083 33.747V28.3958H35.0416C35.3753 28.3958 35.6458 28.1253 35.6458 27.7917V26.5833C35.6458 26.2497 35.3753 25.9792 35.0416 25.9792H30.2083V21.1458C30.2083 20.8122 29.9378 20.5417 29.6041 20.5417H28.3958C28.0621 20.5417 27.7916 20.8122 27.7916 21.1458V25.9792H22.9583C22.6246 25.9792 22.3541 26.2497 22.3541 26.5833V27.7917C22.3541 28.1253 22.6246 28.3958 22.9583 28.3958H27.7916V33.747Z" fill="#001C64"/>
</svg>
