<svg width="58" height="58" viewBox="0 0 58 58" fill="none" xmlns="http://www.w3.org/2000/svg">
<rect y="0.000366211" width="58" height="58" rx="3" fill="white"/>
<rect x="0.5" y="0.500366" width="57" height="57" rx="2.5" stroke="black" stroke-opacity="0.07"/>
<path d="M4.00866 29.1925L5.57615 20.28C5.6028 20.0942 5.72107 20.0004 5.90386 20.0004H11.3782C11.5885 20.0004 11.6946 20.1332 11.654 20.3324L11.43 21.5852C11.4034 21.7589 11.2851 21.8643 11.1023 21.8643H7.45779L7.11559 23.797H10.4315C10.6419 23.797 10.7484 23.9299 10.7073 24.1291L10.4974 25.3544C10.4708 25.5402 10.3525 25.6335 10.1692 25.6335H6.79863L6.16846 29.2459C6.14181 29.4316 6.02354 29.525 5.84028 29.525H4.28542C4.07505 29.525 3.96752 29.3922 4.00866 29.1925ZM10.4722 27.7939C10.4722 26.0628 12.2884 25.4766 14.1957 25.25C14.4196 25.2225 14.5912 25.2115 15.4331 25.1441C15.4582 24.9898 15.471 24.8337 15.4715 24.6773C15.4715 24.0641 15.1433 23.7181 14.458 23.7181C13.8652 23.7181 13.4716 23.9703 13.2864 24.4645C13.221 24.6383 13.1149 24.7186 12.9447 24.7186H11.603C11.4314 24.7186 11.3132 24.6383 11.3132 24.492C11.3132 24.4506 11.3272 24.4121 11.3403 24.3726C11.761 23.1199 12.9325 22.3205 14.6838 22.3205C16.435 22.3205 17.3938 22.9871 17.3938 24.5988C17.3938 24.9059 17.3555 25.2928 17.2877 25.6523L16.9324 27.5966C16.8538 28.0495 16.736 28.741 16.736 29.2088C16.736 29.449 16.6299 29.5289 16.4331 29.5289H15.2092C15.026 29.5289 14.9194 29.435 14.9194 29.2632C14.9194 29.1034 14.9577 28.9172 14.9853 28.7434C14.4851 29.2497 13.8409 29.6617 12.696 29.6617C11.3412 29.6617 10.4726 28.9817 10.4726 27.7978L10.4722 27.7939ZM15.2728 26.6629L15.3247 26.4223L14.9699 26.4608C14.2593 26.5407 12.7058 26.6485 12.7058 27.5923C12.7058 28.0846 13.0611 28.3252 13.6268 28.3252C14.6786 28.3252 15.061 27.5923 15.2709 26.6601L15.2728 26.6629ZM17.6046 27.9402C17.5663 27.7799 17.5387 27.6611 17.5387 27.5278C17.5387 27.3016 17.6565 27.2347 17.8416 27.2347H19.3549C19.5382 27.2347 19.6307 27.3285 19.6714 27.5138C19.8163 28.0336 20.2501 28.2607 20.8953 28.2607C21.6325 28.2607 22.0261 27.9542 22.0261 27.5552C22.0261 27.2092 21.6302 27.0494 20.9743 26.8497L20.1983 26.609C19.081 26.263 18.1581 25.8631 18.1581 24.6238C18.1581 23.1194 19.5653 22.2926 21.4217 22.2926C22.8695 22.2926 24.0546 22.6791 24.3968 24.157C24.4103 24.2234 24.4234 24.2894 24.4234 24.3693C24.4234 24.5021 24.3056 24.555 24.1205 24.555H22.6858C22.5142 24.555 22.4235 24.4751 22.344 24.3009C22.186 23.9549 21.8303 23.7427 21.2651 23.7427C20.6068 23.7427 20.2787 23.9963 20.2787 24.3558C20.2787 24.7148 20.5952 24.8755 21.5021 25.1547L22.0158 25.3149C23.2009 25.6884 24.1873 26.1278 24.1873 27.2472C24.1873 28.8734 22.7395 29.7247 20.7649 29.7247C19.238 29.7247 17.9099 29.2853 17.607 27.9392H17.6028L17.6046 27.9402ZM25.0265 28.3661C25.0265 28.1139 25.0648 27.9128 25.1055 27.6861L25.7506 24.0362H25.04C24.8297 24.0362 24.7235 23.9034 24.7642 23.7042L24.9222 22.8109C24.9493 22.6372 25.0671 22.5318 25.2504 22.5318H26.0129L26.2887 20.9196C26.3158 20.7338 26.4336 20.6404 26.6173 20.6404H28.0647C28.2751 20.6404 28.3812 20.7728 28.3405 20.9725L28.0647 22.5318H28.9856C29.196 22.5318 29.3021 22.6641 29.2615 22.8653L29.1034 23.7585C29.0763 23.9323 28.9585 24.0377 28.7753 24.0377H27.8024L27.3817 26.4218C27.3022 26.8752 27.2368 27.2212 27.2368 27.5008C27.2368 27.9402 27.3817 28.087 27.6846 28.087C27.8024 28.087 27.9085 28.0726 27.9875 28.0726C28.1979 28.0726 28.2634 28.2328 28.225 28.4321L28.0801 29.2978C28.0282 29.6314 27.8295 29.6843 27.3564 29.6843C26.119 29.6843 25.0265 29.6179 25.0265 28.3661ZM28.8346 29.1929L30.3881 20.28C30.4147 20.0942 30.533 20.0004 30.7158 20.0004H32.1636C32.374 20.0004 32.4801 20.1332 32.4394 20.3324L30.8738 29.2444C30.8472 29.4302 30.7289 29.5236 30.5461 29.5236H29.1114C28.901 29.5236 28.7949 29.3912 28.8356 29.1915L28.8346 29.1929ZM31.8345 27.7939C31.8345 26.0628 33.6512 25.4766 35.5585 25.25C35.782 25.2225 35.954 25.2115 36.7955 25.1441C36.8205 24.9898 36.8334 24.8337 36.8338 24.6773C36.8338 24.0641 36.5061 23.7181 35.8203 23.7181C35.228 23.7181 34.8344 23.9703 34.6488 24.4645C34.5833 24.6383 34.4772 24.7186 34.3075 24.7186H32.9658C32.7938 24.7186 32.676 24.6383 32.676 24.492C32.676 24.4506 32.6895 24.4121 32.7026 24.3726C33.1234 23.1199 34.2954 22.3205 36.0461 22.3205C37.7969 22.3205 38.7561 22.9871 38.7561 24.5988C38.7561 24.9059 38.7178 25.2928 38.6495 25.6523L38.2947 27.5966C38.2157 28.0495 38.0979 28.741 38.0979 29.2088C38.0979 29.449 37.9918 29.5289 37.795 29.5289H36.5706C36.3874 29.5289 36.2817 29.435 36.2817 29.2632C36.2817 29.1034 36.3196 28.9172 36.3472 28.7434C35.847 29.2497 35.2018 29.6617 34.0574 29.6617C32.7022 29.6617 31.8336 28.9817 31.8336 27.7978L31.8345 27.7939ZM36.5187 26.6629L36.5711 26.4223L36.2158 26.4608C35.5062 26.5407 33.9522 26.6485 33.9522 27.5923C33.9522 28.0846 34.3075 28.3252 34.8732 28.3252C35.925 28.3252 36.3074 27.5923 36.5173 26.6601L36.5187 26.6629ZM38.8782 29.1929L39.9838 22.8109C40.0109 22.6232 40.1287 22.5318 40.3119 22.5318H41.6667C41.8771 22.5318 41.9697 22.6641 41.929 22.8653L41.8229 23.491C42.1641 22.9986 42.9018 22.3711 44.1122 22.3711C45.4286 22.3711 46.1915 23.1974 46.1915 24.4886C46.1884 24.7616 46.1619 25.0338 46.1121 25.3019L45.4155 29.2449C45.3889 29.4302 45.2706 29.524 45.0873 29.524H43.64C43.4296 29.524 43.3235 29.3917 43.3642 29.192L43.9027 26.1422C43.9822 25.6889 44.0088 25.3428 44.0088 25.0887C44.0088 24.3702 43.7466 23.9828 43.1019 23.9828C42.2464 23.9828 41.7331 24.6628 41.5092 25.9411L40.9295 29.2449C40.9028 29.4302 40.7846 29.524 40.6018 29.524H39.154C38.9436 29.524 38.8375 29.3927 38.8782 29.1929ZM46.5646 26.5412C46.5646 24.3038 48.0783 22.3581 50.7112 22.3581C52.7513 22.3581 54 23.503 54 25.569C54 25.8097 53.9869 26.0219 53.9617 26.2356C53.9346 26.4233 53.8167 26.5147 53.6335 26.5147H48.6454C48.6725 27.5013 49.1185 28.0995 50.1315 28.0995C50.6453 28.0995 51.0001 27.9142 51.29 27.6207C51.3942 27.5013 51.5008 27.4469 51.6588 27.4469H53.2511C53.4343 27.4469 53.5409 27.4999 53.5409 27.6346C53.5409 27.6731 53.5269 27.7285 53.4755 27.8204C52.8037 28.9927 51.7252 29.7647 49.9759 29.7647C47.9764 29.7647 46.5669 28.6583 46.5669 26.5402L46.5655 26.5421L46.5646 26.5412ZM51.894 25.2225C51.894 24.3702 51.433 23.8365 50.5392 23.8365C49.578 23.8365 48.9988 24.5035 48.8422 25.2225H51.8963H51.894Z" fill="black"/>
<path d="M31.4271 33.9924L30.5627 35.4699L30.1233 34.004C30.1161 33.9807 30.1019 33.9604 30.0827 33.9459C30.0636 33.9315 30.0405 33.9237 30.0167 33.9236H29.2374C29.2243 33.9235 29.2114 33.9266 29.1997 33.9327C29.188 33.9387 29.1778 33.9475 29.17 33.9583C29.1622 33.9691 29.1571 33.9817 29.1549 33.995C29.1527 34.0083 29.1536 34.0219 29.1575 34.0348L29.9438 36.5036L29.2323 37.6669C29.2245 37.6798 29.2202 37.6946 29.2199 37.7098C29.2196 37.725 29.2232 37.74 29.2305 37.7533C29.2378 37.7665 29.2484 37.7775 29.2612 37.7851C29.274 37.7927 29.2886 37.7965 29.3033 37.7963H30.1439C30.1934 37.7963 30.2374 37.7708 30.2626 37.7285L32.4575 34.0521C32.4916 33.9963 32.4509 33.9241 32.385 33.9241H31.5449C31.5213 33.9239 31.4981 33.9301 31.4775 33.942C31.4569 33.9539 31.4393 33.9716 31.4271 33.9924ZM19.0083 37.9999C18.9307 37.9999 18.8896 37.9638 18.8896 37.9036C18.8896 37.8858 18.8952 37.8622 18.9073 37.8377L19.2865 36.9209L18.1668 33.9597C18.1491 33.9116 18.1374 33.8875 18.1374 33.8519C18.1374 33.7922 18.1846 33.7739 18.2613 33.7739H18.6638C18.7414 33.7739 18.7947 33.8158 18.818 33.8885L19.3566 35.4891C19.4576 35.789 19.5286 35.993 19.6053 36.2447H19.6174C19.718 35.9507 19.7712 35.7765 19.8778 35.4713L20.4285 33.888C20.4581 33.8116 20.5114 33.7736 20.5884 33.7739H20.9498C21.0269 33.7739 21.0802 33.798 21.0802 33.8582C21.0759 33.8916 21.0659 33.924 21.0508 33.9539L19.4987 37.8926C19.4692 37.9643 19.4216 38.0004 19.3449 38.0004H19.0069L19.0083 37.9999ZM16.661 36.9921C16.1281 36.9921 15.7845 36.7525 15.6069 36.4772V36.7823C15.6069 36.8723 15.5592 36.9204 15.4704 36.9204H15.18C15.0917 36.9204 15.044 36.8723 15.044 36.7823V32.7715C15.044 32.6815 15.0917 32.6333 15.18 32.6333H15.512C15.6003 32.6333 15.648 32.6815 15.648 32.7715V33.5564C15.648 33.7725 15.648 33.9525 15.6424 34.1739C15.82 33.9159 16.1636 33.6767 16.6554 33.6767C17.5376 33.6767 18.1061 34.3842 18.1061 35.3371C18.1061 36.2909 17.5137 36.9921 16.661 36.9921ZM16.5432 36.495C17.1229 36.495 17.4609 36.0392 17.4609 35.3438C17.4609 34.6479 17.1173 34.1869 16.5372 34.1869C15.9575 34.1869 15.6139 34.6724 15.6139 35.3438C15.6139 36.0147 15.957 36.495 16.5432 36.495ZM23.9151 35.5479C24.7182 35.5479 25.3989 34.9545 25.5228 34.1522C25.648 33.3427 25.0225 32.6362 24.1381 32.6343H22.7103C22.684 32.6345 22.6585 32.6442 22.6384 32.6618C22.6183 32.6794 22.6049 32.7038 22.6005 32.7306L21.9638 36.8189C21.9614 36.8339 21.9623 36.8494 21.9664 36.864C21.9706 36.8787 21.9777 36.8923 21.9875 36.9038C21.9973 36.9153 22.0094 36.9244 22.023 36.9305C22.0366 36.9366 22.0513 36.9396 22.0661 36.9392H22.8221C22.8485 36.939 22.8739 36.9292 22.894 36.9116C22.9141 36.894 22.9275 36.8697 22.9319 36.8429L23.1194 35.6427C23.1238 35.6159 23.1372 35.5916 23.1573 35.574C23.1774 35.5564 23.2029 35.5466 23.2293 35.5464H23.9151V35.5479ZM24.5466 34.1147C24.4999 34.4145 24.2722 34.6344 23.8347 34.6344H23.2751L23.4448 33.5458H23.9936C24.4466 33.5458 24.5939 33.8158 24.5466 34.1147ZM28.7942 33.9236H28.078C28.0517 33.9238 28.0262 33.9335 28.0061 33.9511C27.986 33.9687 27.9726 33.9931 27.9682 34.0199L27.9439 34.171C27.9439 34.171 27.3876 33.5559 26.4026 33.9708C25.8378 34.209 25.5662 34.7023 25.4508 35.0613C25.4508 35.0613 25.0838 36.1581 25.9126 36.7602C25.9126 36.7602 26.6807 37.3391 27.5465 36.7241L27.532 36.8203C27.5296 36.8354 27.5305 36.8509 27.5345 36.8656C27.5386 36.8804 27.5458 36.894 27.5556 36.9055C27.5654 36.9171 27.5775 36.9263 27.5911 36.9324C27.6047 36.9386 27.6195 36.9415 27.6344 36.9411H28.3506C28.377 36.9409 28.4024 36.9312 28.4225 36.9136C28.4426 36.896 28.4561 36.8716 28.4605 36.8449L28.8976 34.0454C28.9 34.0302 28.8991 34.0147 28.895 33.9999C28.891 33.9851 28.8838 33.9715 28.874 33.9598C28.8643 33.9482 28.8521 33.939 28.8385 33.9327C28.8249 33.9264 28.8092 33.9233 28.7942 33.9236ZM27.7415 35.4699C27.6797 35.8713 27.3539 36.1668 26.9364 36.1668C26.8539 36.1668 26.7786 36.1557 26.7106 36.1336C26.5643 36.0878 26.4393 35.9886 26.3591 35.8546C26.279 35.7206 26.2492 35.561 26.2754 35.4059C26.3376 35.0045 26.6639 34.709 27.0818 34.709C27.1647 34.709 27.2398 34.7203 27.3072 34.7427C27.6176 34.8438 27.7924 35.1441 27.7415 35.4699ZM34.2391 35.5483C35.0422 35.5483 35.7229 34.9549 35.8468 34.1527C35.9721 33.3432 35.3466 32.6367 34.4621 32.6348H33.0358C33.0094 32.635 32.9839 32.6447 32.9638 32.6623C32.9437 32.6799 32.9303 32.7043 32.9259 32.731L32.2892 36.8194C32.2789 36.8838 32.3266 36.9397 32.3916 36.9397H33.1475C33.1739 36.9395 33.1994 36.9297 33.2194 36.9121C33.2395 36.8945 33.253 36.8702 33.2574 36.8434L33.4444 35.6431C33.4487 35.6164 33.4622 35.592 33.4823 35.5744C33.5024 35.5568 33.5278 35.5471 33.5542 35.5469H34.2386L34.2391 35.5483ZM34.8725 34.1151C34.8258 34.415 34.5976 34.6349 34.1601 34.6349H33.601L33.7702 33.5463H34.3195C34.7711 33.5463 34.9188 33.8163 34.8725 34.1151ZM39.1201 33.9241H38.4039C38.3776 33.9243 38.3521 33.934 38.332 33.9516C38.3119 33.9692 38.2985 33.9936 38.2941 34.0203L38.2698 34.1715C38.2698 34.1715 37.7135 33.5564 36.7285 33.9712C36.1637 34.2095 35.8917 34.7028 35.7766 35.0618C35.7766 35.0618 35.4097 36.1586 36.239 36.7606C36.239 36.7606 37.0071 37.3396 37.8729 36.7245L37.8574 36.8208C37.8551 36.8359 37.856 36.8513 37.8601 36.866C37.8642 36.8807 37.8714 36.8943 37.8812 36.9058C37.891 36.9174 37.9031 36.9265 37.9166 36.9327C37.9302 36.9389 37.945 36.9419 37.9598 36.9416H38.6765C38.7029 36.9414 38.7283 36.9317 38.7484 36.9141C38.7685 36.8964 38.7819 36.8721 38.7863 36.8453L39.2225 34.0458C39.2247 34.0307 39.2238 34.0153 39.2196 34.0006C39.2155 33.9858 39.2083 33.9722 39.1986 33.9607C39.1889 33.9491 39.1768 33.9398 39.1633 33.9335C39.1497 33.9272 39.135 33.924 39.1201 33.9241ZM38.0669 35.4704C38.0047 35.8717 37.6793 36.1672 37.2619 36.1672C37.1796 36.1672 37.1046 36.1562 37.037 36.134C36.8905 36.0886 36.7653 35.9894 36.6851 35.8553C36.6049 35.7212 36.5752 35.5615 36.6018 35.4064C36.6635 35.005 36.9907 34.7095 37.4082 34.7095C37.4908 34.7095 37.5657 34.7207 37.633 34.7432C37.9416 34.8443 38.1169 35.1446 38.0669 35.4704ZM39.9265 32.7306L39.2898 36.8189C39.2875 36.8339 39.2884 36.8494 39.2925 36.864C39.2966 36.8787 39.3038 36.8923 39.3136 36.9038C39.3234 36.9153 39.3355 36.9244 39.3491 36.9305C39.3626 36.9366 39.3774 36.9396 39.3922 36.9392H40.1481C40.1745 36.939 40.2 36.9292 40.2201 36.9116C40.2402 36.894 40.2536 36.8697 40.258 36.8429L40.8947 32.7546C40.8971 32.7395 40.8961 32.724 40.892 32.7093C40.8879 32.6946 40.8806 32.681 40.8708 32.6695C40.861 32.658 40.8488 32.6489 40.8352 32.6428C40.8215 32.6367 40.8067 32.6338 40.7919 32.6343H40.0364C40.01 32.6345 39.9846 32.6442 39.9645 32.6618C39.9444 32.6794 39.9309 32.7038 39.9265 32.7306Z" fill="black"/>
</svg>
