<svg width="38" height="24" viewBox="0 0 38 24" fill="none" xmlns="http://www.w3.org/2000/svg">
<rect width="38" height="24" rx="2" fill="white"/>
<rect x="0.5" y="0.5" width="37" height="23" rx="1.5" stroke="black" stroke-opacity="0.07"/>
<path d="M17.0147 16.3528H14.7219L16.156 7.95239H18.4486L17.0147 16.3528Z" fill="#1C34C3"/>
<path d="M25.3256 8.15769C24.8734 7.98772 24.1561 7.80005 23.2692 7.80005C21.005 7.80005 19.4106 8.94388 19.4009 10.5792C19.3821 11.7857 20.5424 12.4559 21.4103 12.8582C22.2973 13.2693 22.5988 13.5376 22.5988 13.904C22.5898 14.4668 21.8821 14.7262 21.2219 14.7262C20.3066 14.7262 19.8161 14.5925 19.0707 14.2794L18.7688 14.1451L18.448 16.0309C18.9857 16.263 19.9765 16.4689 21.005 16.4779C23.4108 16.4779 24.977 15.3518 24.9955 13.6091C25.0047 12.6528 24.392 11.9201 23.071 11.3213C22.2691 10.937 21.778 10.6778 21.778 10.2845C21.7874 9.927 22.1934 9.56081 23.0986 9.56081C23.8439 9.54287 24.3916 9.71261 24.8065 9.88246L25.0138 9.97166L25.3256 8.15769Z" fill="#1C34C3"/>
<path fill-rule="evenodd" clip-rule="evenodd" d="M29.4301 7.95239H31.2036L33.0532 16.3527H30.9304C30.9304 16.3527 30.7226 15.3875 30.6568 15.0926H27.7131C27.628 15.3159 27.2319 16.3527 27.2319 16.3527H24.8262L28.2318 8.64938C28.4677 8.10419 28.8832 7.95239 29.4301 7.95239ZM29.2888 11.0265C29.2888 11.0265 28.5623 12.8943 28.3734 13.3769H30.2792C30.1849 12.9569 29.7507 10.9461 29.7507 10.9461L29.5905 10.2222C29.523 10.4086 29.4254 10.6649 29.3596 10.8377C29.315 10.9549 29.285 11.0337 29.2888 11.0265Z" fill="#1C34C3"/>
<path fill-rule="evenodd" clip-rule="evenodd" d="M4.78774 7.95239H8.47656C8.97656 7.97009 9.38228 8.12201 9.5143 8.65853L10.316 12.5182C10.3161 12.5184 10.3161 12.5187 10.3162 12.5189L10.5616 13.6807L12.8069 7.95239H15.2313L11.6275 16.3439H9.20299L7.15945 9.04468C6.45438 8.65416 5.64969 8.34008 4.75 8.12213L4.78774 7.95239Z" fill="#1C34C3"/>
</svg>
