<svg width="58" height="58" viewBox="0 0 58 58" fill="none" xmlns="http://www.w3.org/2000/svg">
<path d="M9.66675 21.75H47.1251C47.8857 21.75 48.602 22.1081 49.0584 22.7167L55.1001 30.7722C55.4138 31.1905 55.5834 31.6993 55.5834 32.2222V43.5C55.5834 44.8347 54.5014 45.9167 53.1667 45.9167H9.66675C8.33206 45.9167 7.25008 44.8347 7.25008 43.5V24.1667C7.25008 22.832 8.33206 21.75 9.66675 21.75Z" fill="#DD7F57"/>
<path d="M2.41675 9.66667C2.41675 8.33198 3.49873 7.25 4.83341 7.25H26.5834C27.9181 7.25 29.0001 8.33198 29.0001 9.66667V29C29.0001 30.3347 27.9181 31.4167 26.5834 31.4167H4.83341C3.49873 31.4167 2.41675 30.3347 2.41675 29V9.66667Z" fill="#5BBBFC"/>
<path d="M9.66675 12.0833C8.33206 12.0833 7.25008 13.1653 7.25008 14.5V33.8333C7.25008 35.168 8.33206 36.25 9.66675 36.25H38.6667C40.0014 36.25 41.0834 35.168 41.0834 33.8333V14.5C41.0834 13.1653 40.0014 12.0833 38.6667 12.0833H9.66675Z" fill="#4F2825"/>
<path d="M16.9167 50.75C19.5861 50.75 21.7501 48.586 21.7501 45.9167C21.7501 43.2473 19.5861 41.0833 16.9167 41.0833C14.2474 41.0833 12.0834 43.2473 12.0834 45.9167C12.0834 48.586 14.2474 50.75 16.9167 50.75Z" fill="#4F2825"/>
<path d="M50.7501 45.9167C50.7501 48.586 48.5861 50.75 45.9167 50.75C43.2474 50.75 41.0834 48.586 41.0834 45.9167C41.0834 43.2473 43.2474 41.0833 45.9167 41.0833C48.5861 41.0833 50.7501 43.2473 50.7501 45.9167Z" fill="#4F2825"/>
<path d="M50.1459 32.474C50.4796 32.474 50.7501 32.2035 50.7501 31.8698V30.9635C50.7501 30.6299 50.4796 30.3594 50.1459 30.3594H44.1042C43.7706 30.3594 43.5001 30.6299 43.5001 30.9635V31.8698C43.5001 32.2035 43.7706 32.474 44.1042 32.474H50.1459Z" fill="#4F2825"/>
<path d="M29.0001 12.0833V29C29.0001 30.3347 27.9181 31.4167 26.5834 31.4167H7.25008V14.5C7.25008 13.1653 8.33206 12.0833 9.66675 12.0833H29.0001Z" fill="#FAF8F5"/>
<path d="M20.104 22.7004H12.3855C12.0518 22.7004 11.7813 22.4299 11.7813 22.0962V21.19C11.7813 20.8563 12.0518 20.5858 12.3855 20.5858H20.1038L17.5027 17.9847C17.2667 17.7488 17.2667 17.3662 17.5027 17.1303L18.1435 16.4895C18.3794 16.2535 18.762 16.2535 18.9979 16.4895L23.7244 21.216C23.9604 21.4519 23.9604 21.8345 23.7244 22.0704L18.9979 26.7969C18.762 27.0329 18.3794 27.0329 18.1435 26.7969L17.5027 26.1561C17.2667 25.9202 17.2667 25.5376 17.5027 25.3017L20.104 22.7004Z" fill="#001C64"/>
</svg>
