<svg width="58" height="58" viewBox="0 0 58 58" fill="none" xmlns="http://www.w3.org/2000/svg">
<rect y="0.000183105" width="58" height="58" rx="3" fill="white"/>
<rect x="0.5" y="0.500183" width="57" height="57" rx="2.5" stroke="black" stroke-opacity="0.07"/>
<g clip-path="url(#clip0_3277_11734)">
<path d="M40.2889 18.9445C40.2889 23.7531 35.8793 29.4362 29.2162 29.4362H22.7984L22.4869 31.439L20.9858 41.0933H13L17.8014 10.0073H30.7358C35.0885 10.0073 38.5175 12.4556 39.774 15.858C40.1296 16.8214 40.3109 17.8615 40.2896 18.9445H40.2889Z" fill="#002991"/>
<path d="M44.8945 27.882C44.0127 33.2736 39.4076 37.2076 33.969 37.2076H29.5103L27.6486 48.8646H19.7119L20.9855 41.0935L22.4867 31.4392L22.7981 29.4364H29.2159C35.879 29.4364 40.2886 23.7533 40.2886 18.9448C40.29 18.9448 40.2915 18.9462 40.2929 18.9469C43.5725 20.6481 45.4812 24.095 44.8938 27.882H44.8945Z" fill="#60CDFF"/>
<path d="M40.2881 18.9441C40.2881 18.9441 40.2909 18.9455 40.2924 18.9462C40.2909 18.8638 40.2902 18.8588 40.2881 18.9441Z" fill="black"/>
<path d="M40.2903 18.9432C38.9186 18.2147 37.2524 17.7778 35.4398 17.7778H24.6124L22.7998 29.4348H29.2176C35.8807 29.4348 40.2903 23.7517 40.2903 18.9432Z" fill="#008CFF"/>
</g>
<defs>
<clipPath id="clip0_3277_11734">
<rect width="32" height="38.8571" fill="white" transform="translate(13 10.0003)"/>
</clipPath>
</defs>
</svg>
