<svg width="58" height="58" viewBox="0 0 58 58" fill="none" xmlns="http://www.w3.org/2000/svg">
<rect y="0.000488281" width="58" height="58" rx="3" fill="white"/>
<rect x="0.5" y="0.500488" width="57" height="57" rx="2.5" stroke="black" stroke-opacity="0.07"/>
<path fill-rule="evenodd" clip-rule="evenodd" d="M28.1926 34.1615V29.1674V29.1665H30.8942C32.0081 29.1671 32.9442 28.8171 33.7025 28.1165C34.4689 27.4515 34.8974 26.4954 34.8756 25.4989C34.8908 24.5079 34.4631 23.5589 33.7025 22.896C32.9508 22.1916 31.9398 21.8072 30.8942 21.8283H26.5574V34.1615H28.1926ZM28.1929 27.6524V23.3471V23.3461H30.9351C31.5463 23.3295 32.1355 23.5678 32.5531 24.0005C32.9732 24.3963 33.2102 24.9399 33.2102 25.5076C33.2102 26.0753 32.9732 26.6189 32.5531 27.0147C32.1304 27.4383 31.543 27.6698 30.9351 27.6524H28.1929Z" fill="#5F6368"/>
<path fill-rule="evenodd" clip-rule="evenodd" d="M41.5056 26.387C40.8061 25.7612 39.8521 25.4482 38.6434 25.4482C37.0908 25.4482 35.9184 25.9993 35.1262 27.1015L36.5664 27.9802C37.0986 27.2337 37.8214 26.8604 38.7348 26.8604C39.3172 26.8538 39.8808 27.06 40.3132 27.438C40.7443 27.7834 40.9923 28.2983 40.9886 28.8403V29.2024C40.3602 28.858 39.5606 28.6858 38.5896 28.6858C37.4521 28.6871 36.5427 28.9456 35.8616 29.4612C35.1804 29.9769 34.8398 30.6713 34.8398 31.5445C34.825 32.3396 35.1809 33.0988 35.8087 33.611C36.4547 34.1621 37.2574 34.4376 38.2169 34.4376C39.3409 34.4376 40.2414 33.9554 40.9185 32.991H40.9896V34.1621H42.5537V28.9613C42.5544 27.871 42.205 27.0129 41.5056 26.387ZM37.0703 32.6125C36.7278 32.3732 36.5257 31.9883 36.528 31.5792C36.528 31.1196 36.7504 30.7368 37.1983 30.4219C37.6418 30.1116 38.1957 29.9565 38.8599 29.9565C39.772 29.9565 40.4829 30.1533 40.9928 30.5469C40.9928 31.2121 40.7219 31.7917 40.1803 32.2857C39.6924 32.7585 39.0309 33.0246 38.3409 33.0258C37.8809 33.0341 37.432 32.8881 37.0703 32.6125Z" fill="#5F6368"/>
<path fill-rule="evenodd" clip-rule="evenodd" d="M51.5326 25.724L46.0724 37.882H44.3844L46.4107 33.628L42.8203 25.724H44.5977L47.1927 31.7858H47.2283L49.7522 25.724H51.5326Z" fill="#5F6368"/>
<path fill-rule="evenodd" clip-rule="evenodd" d="M21.5843 28.0914C21.5849 27.6086 21.5427 27.1266 21.4583 26.6508H14.562V29.3796H18.5119C18.3486 30.2602 17.821 31.038 17.0514 31.5327V33.304H19.4087C20.789 32.071 21.5843 30.2475 21.5843 28.0914Z" fill="#4285F4"/>
<path fill-rule="evenodd" clip-rule="evenodd" d="M14.5625 35.0146C16.5359 35.0146 18.1976 34.3868 19.4092 33.3043L17.0519 31.533C16.3958 31.964 15.5508 32.21 14.5625 32.21C12.6551 32.21 11.0362 30.9642 10.4572 29.2854H8.02881V31.1108C9.2701 33.504 11.7981 35.0145 14.5625 35.0146Z" fill="#34A853"/>
<path fill-rule="evenodd" clip-rule="evenodd" d="M10.4571 29.2863C10.1511 28.4066 10.1511 27.4539 10.4571 26.5742V24.7488H8.02868C6.99044 26.7505 6.99044 29.11 8.02868 31.1117L10.4571 29.2863Z" fill="#FBBC04"/>
<path fill-rule="evenodd" clip-rule="evenodd" d="M14.5625 23.6493C15.6054 23.6328 16.6131 24.0145 17.3678 24.7121L19.4549 22.6898C18.1315 21.4854 16.3781 20.8242 14.5625 20.8447C11.7981 20.8448 9.2701 22.3553 8.02881 24.7485L10.4572 26.5739C11.0362 24.8951 12.6551 23.6493 14.5625 23.6493Z" fill="#EA4335"/>
</svg>
