<svg width="58" height="58" viewBox="0 0 58 58" fill="none" xmlns="http://www.w3.org/2000/svg">
<rect y="0.000488281" width="58" height="58" rx="3" fill="white"/>
<rect x="0.5" y="0.500488" width="57" height="57" rx="2.5" stroke="black" stroke-opacity="0.07"/>
<g clip-path="url(#clip0_3277_11784)">
<path d="M9 13.5955V43.6249C9 45.0623 10.1761 46.2384 11.6135 46.2384H29.5554C43.1196 46.2384 49 38.6461 49 28.571C49 18.5481 43.1196 10.9819 29.5554 10.9819H11.6135C10.1761 10.9819 9 12.158 9 13.5955Z" fill="white"/>
<path d="M21.0078 18.3528V40.5417H30.6648C39.4332 40.5417 43.2358 35.589 43.2358 28.5848C43.2358 21.8811 39.4332 16.6802 30.6648 16.6802H22.6805C21.7527 16.6802 21.0078 17.4381 21.0078 18.3528Z" fill="#CC0066"/>
<path d="M29.5561 43.8352H13.9533C12.5682 43.8352 11.4443 42.7113 11.4443 41.3262V15.8835C11.4443 14.4983 12.5682 13.3745 13.9533 13.3745H29.5561C44.3617 13.3745 46.5701 22.9008 46.5701 28.5722C46.5701 38.4121 40.5198 43.8352 29.5561 43.8352ZM13.9533 14.2108C13.0255 14.2108 12.2807 14.9557 12.2807 15.8835V41.3262C12.2807 42.254 13.0255 42.9988 13.9533 42.9988H29.5561C39.984 42.9988 45.7338 37.8763 45.7338 28.5722C45.7338 16.0795 35.5933 14.2108 29.5561 14.2108H13.9533Z" fill="black"/>
<path d="M24.4023 25.5966C24.7421 25.5966 25.0557 25.6488 25.3562 25.7534C25.6568 25.8579 25.9051 26.0278 26.1272 26.2369C26.3363 26.459 26.5062 26.7334 26.6369 27.0471C26.7545 27.3738 26.8198 27.7527 26.8198 28.197C26.8198 28.5891 26.7676 28.9419 26.6761 29.2686C26.5715 29.5953 26.4278 29.8827 26.2318 30.118C26.0358 30.3532 25.7875 30.5361 25.4869 30.6799C25.1864 30.8105 24.8335 30.889 24.4284 30.889H22.1416V25.5835H24.4023V25.5966ZM24.3239 29.9219C24.4938 29.9219 24.6506 29.8958 24.8205 29.8435C24.9773 29.7913 25.121 29.6998 25.2386 29.5691C25.3562 29.4384 25.4608 29.2816 25.5392 29.0726C25.6176 28.8635 25.6568 28.6283 25.6568 28.3277C25.6568 28.0663 25.6307 27.8181 25.5784 27.609C25.5261 27.3999 25.4346 27.2039 25.317 27.0601C25.1994 26.9164 25.0426 26.7857 24.8466 26.7073C24.6506 26.6289 24.4154 26.5897 24.1279 26.5897H23.2916V29.935H24.3239V29.9219Z" fill="white"/>
<path d="M31.5357 25.5966V26.5766H28.7392V27.7135H31.3135V28.6152H28.7392V29.9089H31.601V30.889H27.5762V25.5835H31.5357V25.5966Z" fill="white"/>
<path d="M35.5369 25.5952L37.5232 30.9007H36.3079L35.9028 29.7246H33.9165L33.4984 30.9007H32.3223L34.3216 25.5952H35.5369ZM35.6022 28.8491L34.9358 26.902H34.9227L34.2301 28.8491H35.6022Z" fill="white"/>
<path d="M39.4189 25.5952V29.9206H42.0063V30.9007H38.2559V25.5952H39.4189Z" fill="white"/>
<path d="M16.6458 30.6925C17.9954 30.6925 19.0894 29.5984 19.0894 28.2488C19.0894 26.8992 17.9954 25.8052 16.6458 25.8052C15.2962 25.8052 14.2021 26.8992 14.2021 28.2488C14.2021 29.5984 15.2962 30.6925 16.6458 30.6925Z" fill="black"/>
<path d="M18.4872 40.5476C16.4356 40.5476 14.7891 38.8881 14.7891 36.8495V33.9616C14.7891 32.9423 15.6123 32.106 16.6447 32.106C17.6639 32.106 18.5003 32.9292 18.5003 33.9616V40.5476H18.4872Z" fill="black"/>
</g>
<defs>
<clipPath id="clip0_3277_11784">
<rect width="40" height="35.2565" fill="white" transform="translate(9 11.0005)"/>
</clipPath>
</defs>
</svg>
