<svg width="40" height="24" viewBox="0 0 40 24" fill="none" xmlns="http://www.w3.org/2000/svg">
<rect x="1.29999" y="0.5" width="37.4" height="23" rx="1.5" fill="white"/>
<rect x="1.29999" y="0.5" width="37.4" height="23" rx="1.5" stroke="#DDDDDD"/>
<path fill-rule="evenodd" clip-rule="evenodd" d="M19.0755 15.4422V12.2764V12.2758H20.788C21.4941 12.2762 22.0875 12.0544 22.5682 11.6102C23.054 11.1887 23.3256 10.5826 23.3118 9.95093C23.3214 9.32272 23.0503 8.72116 22.5682 8.301C22.0917 7.85443 21.4508 7.61077 20.788 7.62418H18.0389V15.4422H19.0755ZM19.0755 11.3157V8.58666V8.58603H20.8138C21.2012 8.57548 21.5747 8.72654 21.8394 9.00085C22.1057 9.25172 22.256 9.5963 22.256 9.95619C22.256 10.3161 22.1057 10.6607 21.8394 10.9115C21.5714 11.1801 21.1991 11.3268 20.8138 11.3157H19.0755Z" fill="#5F6368"/>
<path fill-rule="evenodd" clip-rule="evenodd" d="M27.5146 10.5136C27.0712 10.1168 26.4665 9.91846 25.7003 9.91846C24.7161 9.91846 23.973 10.2678 23.4708 10.9664L24.3837 11.5235C24.7211 11.0502 25.1793 10.8136 25.7583 10.8136C26.1274 10.8094 26.4847 10.9402 26.7588 11.1798C27.0321 11.3987 27.1893 11.7251 27.1869 12.0687V12.2982C26.7886 12.0799 26.2817 11.9707 25.6662 11.9707C24.9451 11.9716 24.3687 12.1354 23.9369 12.4623C23.5051 12.7891 23.2892 13.2293 23.2892 13.7828C23.2798 14.2869 23.5055 14.7681 23.9034 15.0928C24.3129 15.4421 24.8217 15.6168 25.4299 15.6168C26.1424 15.6168 26.7133 15.3111 27.1425 14.6998H27.1876V15.4421H28.179V12.1454C28.1795 11.4542 27.958 10.9103 27.5146 10.5136ZM24.7031 14.4596C24.486 14.308 24.3579 14.064 24.3593 13.8047C24.3593 13.5133 24.5003 13.2707 24.7842 13.0711C25.0654 12.8744 25.4165 12.776 25.8375 12.776C26.4157 12.776 26.8663 12.9008 27.1895 13.1503C27.1895 13.572 27.0178 13.9394 26.6745 14.2525C26.3652 14.5522 25.9459 14.7209 25.5085 14.7216C25.2169 14.7269 24.9323 14.6344 24.7031 14.4596Z" fill="#5F6368"/>
<path fill-rule="evenodd" clip-rule="evenodd" d="M33.8705 10.093L30.4093 17.8H29.3393L30.6237 15.1033L28.3478 10.093H29.4745L31.1195 13.9356H31.142L32.7419 10.093H33.8705Z" fill="#5F6368"/>
<path fill-rule="evenodd" clip-rule="evenodd" d="M14.8867 11.5939C14.8871 11.2878 14.8604 10.9823 14.8069 10.6807H10.4353V12.4104H12.9391C12.8356 12.9687 12.5011 13.4617 12.0133 13.7753V14.8981H13.5076C14.3826 14.1165 14.8867 12.9606 14.8867 11.5939Z" fill="#4285F4"/>
<path fill-rule="evenodd" clip-rule="evenodd" d="M10.4353 15.9829C11.6862 15.9829 12.7395 15.5849 13.5076 14.8988L12.0133 13.7759C11.5974 14.0492 11.0617 14.2051 10.4353 14.2051C9.22619 14.2051 8.19993 13.4154 7.83296 12.3512H6.29358V13.5083C7.08043 15.0254 8.68294 15.9828 10.4353 15.9829Z" fill="#34A853"/>
<path fill-rule="evenodd" clip-rule="evenodd" d="M7.83297 12.3513C7.63896 11.7936 7.63896 11.1898 7.83297 10.6321V9.47498H6.29359C5.63545 10.7438 5.63545 12.2395 6.29359 13.5084L7.83297 12.3513Z" fill="#FBBC04"/>
<path fill-rule="evenodd" clip-rule="evenodd" d="M10.4353 8.7781C11.0964 8.76764 11.7351 9.00964 12.2135 9.4518L13.5366 8.1699C12.6976 7.40643 11.5862 6.98727 10.4353 7.00029C8.68294 7.00037 7.08043 7.95784 6.29358 9.47488L7.83296 10.632C8.19993 9.56782 9.22619 8.7781 10.4353 8.7781Z" fill="#EA4335"/>
</svg>
