<svg width="58" height="58" viewBox="0 0 58 58" fill="none" xmlns="http://www.w3.org/2000/svg">
<rect y="8.00024" width="27.1875" height="17.2188" rx="0.90625" fill="white"/>
<rect x="0.453125" y="8.45337" width="26.2813" height="16.3125" rx="0.453125" stroke="black" stroke-opacity="0.25" stroke-width="0.90625"/>
<path d="M12.1733 19.7324H10.533L11.559 13.7056H13.1993L12.1733 19.7324Z" fill="#1A1F71"/>
<path d="M18.1194 13.8529C17.7959 13.731 17.2827 13.5963 16.6481 13.5963C15.0282 13.5963 13.8875 14.417 13.8805 15.5902C13.867 16.4558 14.6972 16.9366 15.3181 17.2253C15.9528 17.5202 16.1685 17.7127 16.1685 17.9756C16.162 18.3794 15.6557 18.5655 15.1834 18.5655C14.5285 18.5655 14.1776 18.4695 13.6443 18.2449L13.4283 18.1486L13.1987 19.5015C13.5835 19.668 14.2923 19.8158 15.0282 19.8222C16.7494 19.8222 17.87 19.0143 17.8832 17.764C17.8898 17.0779 17.4514 16.5522 16.5063 16.1226C15.9326 15.8469 15.5812 15.6609 15.5812 15.3788C15.5879 15.1223 15.8784 14.8596 16.526 14.8596C17.0593 14.8467 17.4511 14.9685 17.748 15.0903L17.8963 15.1543L18.1194 13.8529Z" fill="#1A1F71"/>
<path fill-rule="evenodd" clip-rule="evenodd" d="M21.0561 13.7056H22.325L23.6484 19.7323H22.1295C22.1295 19.7323 21.9809 19.0399 21.9338 18.8283H19.8277L19.4834 19.7323H17.7622L20.1988 14.2056C20.3676 13.8145 20.6649 13.7056 21.0561 13.7056ZM20.955 15.9111C20.955 15.9111 20.4352 17.2511 20.3001 17.5973H21.6636C21.5961 17.296 21.2855 15.8534 21.2855 15.8534L21.1708 15.3341C21.1225 15.4678 21.0527 15.6516 21.0056 15.7756C20.9737 15.8597 20.9522 15.9163 20.955 15.9111Z" fill="#1A1F71"/>
<path fill-rule="evenodd" clip-rule="evenodd" d="M3.42544 13.7056H6.06464C6.42238 13.7183 6.71265 13.8273 6.80711 14.2122L7.3807 16.9814C7.38074 16.9815 7.38079 16.9817 7.38083 16.9818L7.55638 17.8153L9.16285 13.7056H10.8974L8.31902 19.7261H6.58437L5.1223 14.4892C4.61785 14.209 4.04213 13.9837 3.39844 13.8273L3.42544 13.7056Z" fill="#1A1F71"/>
<rect x="30.8125" y="8.00024" width="27.1875" height="17.2188" rx="0.90625" fill="white"/>
<rect x="31.2656" y="8.45337" width="26.2813" height="16.3125" rx="0.453125" stroke="black" stroke-opacity="0.25" stroke-width="0.90625"/>
<path fill-rule="evenodd" clip-rule="evenodd" d="M53.4738 19.6686V19.4668H53.4222L53.3623 19.6057L53.3024 19.4668H53.2505V19.6686H53.2873V19.5165L53.3432 19.6478H53.3814L53.4374 19.5162V19.6686H53.4742H53.4738ZM53.1448 19.6686V19.5012H53.2115V19.4672H53.042V19.5012H53.1087V19.6686H53.1448ZM53.4846 16.6683C53.4846 19.7915 50.9924 22.3231 47.918 22.3231C44.8442 22.3231 42.3521 19.7915 42.3521 16.6683C42.3521 13.5455 44.8442 11.0135 47.9183 11.0135C50.9924 11.0135 53.4846 13.5455 53.4846 16.6683Z" fill="#F79F1A"/>
<path fill-rule="evenodd" clip-rule="evenodd" d="M46.6179 16.6683C46.6179 19.7915 44.1258 22.3231 41.0516 22.3231C37.9779 22.3231 35.4854 19.7915 35.4854 16.6683C35.4854 13.5455 37.9775 11.0135 41.052 11.0135C44.1258 11.0135 46.6179 13.5455 46.6179 16.6683Z" fill="#EA001B"/>
<path fill-rule="evenodd" clip-rule="evenodd" d="M44.4852 12.217C43.8198 12.7463 43.282 13.4222 42.9126 14.1933C42.5432 14.9645 42.3518 15.8108 42.353 16.668C42.353 18.475 43.1864 20.0847 44.4852 21.12C45.7839 20.0847 46.6173 18.475 46.6173 16.668C46.6185 15.8108 46.4272 14.9645 46.0578 14.1933C45.6884 13.4222 45.1506 12.7463 44.4852 12.217Z" fill="#FF5F01"/>
<rect y="33.219" width="27.1875" height="17.2188" rx="0.90625" fill="#006FCF"/>
<rect x="0.453125" y="33.6721" width="26.2812" height="16.3125" rx="0.453125" stroke="black" stroke-opacity="0.25" stroke-width="0.90625"/>
<path fill-rule="evenodd" clip-rule="evenodd" d="M0.424805 41.4528H1.69008L1.97523 40.7586H2.61366L2.89811 41.4525H5.38757V40.9219L5.60951 41.455H6.90182L7.12411 40.9141V41.4528H13.31L13.3068 40.313H13.4266C13.5105 40.3159 13.5351 40.3237 13.5351 40.4636V41.4528H16.7343V41.1874C16.9924 41.3269 17.3938 41.4528 17.9219 41.4528H19.268L19.5559 40.7586H20.1947L20.4764 41.4525H23.0701V40.7931L23.4627 41.4528H25.5417V37.0933H23.4845V37.6082L23.1965 37.0933H21.0857V37.6082L20.8212 37.0933H17.9697C17.4928 37.0933 17.0732 37.1605 16.7343 37.3477V37.0933H14.767V37.3477C14.5514 37.1548 14.2575 37.0933 13.9305 37.0933H6.74274L6.26023 38.2192L5.76508 37.0933H3.50107V37.6082L3.25244 37.0933H1.32135L0.424805 39.1658V41.4528ZM8.41045 40.8237H7.65122L7.64841 38.3758L6.57488 40.824H5.92486L4.84852 38.3736V40.8237H3.34234L3.05789 40.1266H1.51625L1.22899 40.824H0.424805L1.75083 37.6982H2.8507L4.11 40.6575V37.6982H5.31838L6.28762 39.8184L7.17749 37.6982H8.4101V40.8237H8.41045ZM2.80505 39.4782L2.29831 38.2324L1.79437 39.4778H2.80505V39.4782ZM11.4312 40.824H8.95793V37.6986H11.4312V38.3494H9.6982V38.9127H11.3898V39.5533H9.6982V40.1778H11.4312V40.824ZM14.917 38.5402C14.917 39.0384 14.5869 39.296 14.3951 39.3736C14.557 39.4355 14.6954 39.5455 14.7614 39.6369C14.866 39.7921 14.884 39.9308 14.884 40.2098V40.824H14.137L14.1342 40.4301C14.1342 40.2419 14.1521 39.9714 14.0173 39.8209C13.9091 39.7113 13.7444 39.6874 13.4779 39.6874H12.6828V40.824H11.9425V37.6986H13.6457C14.0239 37.6986 14.3028 37.7085 14.5423 37.848C14.7765 37.9879 14.917 38.1918 14.917 38.5402ZM13.9807 39.0046C13.8789 39.0668 13.7588 39.0686 13.6145 39.0686H12.7151V38.3747H13.6268C13.756 38.3747 13.8905 38.3804 13.9779 38.4309C14.0742 38.4765 14.1335 38.5733 14.1335 38.7074C14.1335 38.8437 14.077 38.9537 13.9807 39.0046ZM16.1043 40.824H15.3489V37.6986H16.1039V40.824H16.1043ZM24.8744 40.824H23.8251L22.4219 38.4782V40.824H20.9139L20.626 40.1269H19.0878L18.8079 40.8244H17.9416C17.5817 40.8244 17.1262 40.744 16.8681 40.4785C16.6079 40.213 16.4723 39.8536 16.4723 39.2853C16.4723 38.8216 16.5531 38.3978 16.8716 38.063C17.1111 37.8135 17.4858 37.6986 17.996 37.6986H18.7128V38.3683H18.0115C17.7411 38.3683 17.5887 38.4089 17.4415 38.5533C17.3155 38.685 17.2287 38.9341 17.2287 39.2615C17.2287 39.596 17.2948 39.838 17.4324 39.9956C17.5465 40.1191 17.7534 40.1568 17.9486 40.1568H18.2808L19.3245 37.6986H20.4342L21.6876 40.655V37.6986H22.8148L24.1163 39.8753V37.6986H24.8748V40.824H24.8744ZM20.3738 39.4782L19.8615 38.2324L19.3519 39.4782H20.3738ZM26.7613 45.8149C26.5811 46.0804 26.231 46.2149 25.7562 46.2149H24.3266V45.5444H25.7506C25.8918 45.5444 25.9908 45.5256 26.0502 45.4669C26.078 45.441 26.1003 45.4095 26.1154 45.3743C26.1305 45.3392 26.1382 45.3013 26.138 45.263C26.1395 45.2238 26.1321 45.1848 26.1164 45.1489C26.1007 45.1131 26.0771 45.0813 26.0474 45.0562C25.9936 45.0085 25.9153 44.9868 25.7864 44.9868C25.0911 44.963 24.2237 45.0085 24.2237 44.0189C24.2237 43.5655 24.5092 43.0883 25.2864 43.0883H26.7613V42.4663H25.3907C24.9773 42.4663 24.6767 42.5659 24.4643 42.7215V42.4663H22.4373C22.1132 42.4663 21.7329 42.5474 21.5527 42.7215V42.4663H17.9335V42.7215C17.6456 42.5119 17.1592 42.4663 16.9352 42.4663H14.5475V42.7215C14.3196 42.499 13.8129 42.4663 13.5042 42.4663H10.8321L10.2211 43.1339L9.64833 42.4663H5.65691V46.8291H9.57318L10.2032 46.1505L10.7967 46.8287L13.2106 46.8309V45.8046H13.4477C13.7679 45.8096 14.1458 45.7967 14.4791 45.6516V46.8287H16.4702V45.6914H16.5661C16.689 45.6914 16.7009 45.6964 16.7009 45.8199V46.8284H22.7488C23.133 46.8284 23.5344 46.7287 23.7567 46.549V46.8284H25.6751C26.0744 46.8284 26.4642 46.7714 26.7609 46.627V45.8145L26.7613 45.8149ZM14.7688 44.1367C14.7688 45.005 14.1261 45.1847 13.4793 45.1847H12.5553V46.2334H11.1162L10.2046 45.1982L9.25713 46.2334H6.32414V43.1068H9.30208L10.213 44.1317L11.1549 43.1068H13.5207C14.1082 43.1068 14.7684 43.2709 14.7684 44.1367H14.7688ZM8.88208 45.5758H7.0616V44.9537H8.68718V44.3157H7.06125V43.7474H8.9179L9.7277 44.6584L8.88208 45.5758ZM11.8151 45.9337L10.6783 44.6598L11.8151 43.4271V45.9337ZM13.4965 44.5434H12.5395V43.7474H13.5053C13.7721 43.7474 13.9579 43.8573 13.9579 44.1306C13.9579 44.4011 13.7809 44.5434 13.4965 44.5434ZM18.5091 43.1068H20.9803V43.7534H19.2466V44.3217H20.9378V44.9598H19.2466V45.5818L20.9803 45.5847V46.2334H18.5091V43.1068ZM17.5592 44.7804C17.7239 44.8416 17.8587 44.9516 17.9219 45.0427C18.0262 45.1957 18.0413 45.338 18.0445 45.6135V46.2334H17.3011V45.8419C17.3011 45.654 17.319 45.3758 17.1817 45.2299C17.0732 45.1181 16.9085 45.0911 16.6381 45.0911H15.8469V46.2334H15.1031V43.1068H16.8122C17.1873 43.1068 17.4602 43.1236 17.7032 43.2542C17.937 43.3965 18.0838 43.5922 18.0838 43.9484C18.0838 44.4477 17.7537 44.7021 17.5592 44.7804ZM17.1406 44.3851C17.0416 44.4445 16.9193 44.4495 16.775 44.4495H15.8753V43.7474H16.7873C16.919 43.7474 17.0507 43.7502 17.1406 43.8036C17.2365 43.8545 17.2937 43.9513 17.2937 44.0847C17.2937 44.2189 17.2365 44.3267 17.1406 44.3851ZM23.8248 44.5843C23.9688 44.7349 24.046 44.9249 24.046 45.2466C24.046 45.9192 23.6295 46.233 22.8829 46.233H21.4407V45.5626H22.877C23.0174 45.5626 23.1172 45.5441 23.1797 45.4854C23.2074 45.4594 23.2294 45.4278 23.2445 45.3927C23.2595 45.3576 23.2673 45.3197 23.2671 45.2815C23.2679 45.2424 23.2602 45.2036 23.2445 45.1679C23.2289 45.1322 23.2057 45.1004 23.1765 45.0747C23.1203 45.027 23.042 45.0053 22.9131 45.0053C22.2206 44.9815 21.3536 45.0267 21.3536 44.0374C21.3536 43.584 21.6359 43.1068 22.412 43.1068H23.8964V43.7723H22.5381C22.4036 43.7723 22.3162 43.7773 22.2414 43.8285C22.1606 43.8794 22.1304 43.9545 22.1304 44.0538C22.1292 44.105 22.1444 44.1553 22.1735 44.1972C22.2026 44.2391 22.2443 44.2704 22.2923 44.2865C22.3706 44.3139 22.4545 44.3221 22.5802 44.3221L22.9792 44.3328C23.3809 44.3427 23.6569 44.4128 23.8248 44.5843ZM26.7627 43.7474H25.4131C25.2786 43.7474 25.1891 43.7524 25.1136 43.8036C25.0356 43.8545 25.0054 43.9296 25.0054 44.0289C25.0037 44.0802 25.0186 44.1308 25.0478 44.1728C25.077 44.2148 25.119 44.246 25.1673 44.2616C25.2453 44.289 25.3292 44.2972 25.4528 44.2972L25.8539 44.3079C26.2588 44.3178 26.5292 44.3883 26.6939 44.5594C26.7241 44.5833 26.742 44.61 26.7627 44.637V43.7474Z" fill="white"/>
<g clip-path="url(#clip0_3277_11748)">
<rect x="30.8125" y="33.219" width="27.1875" height="17.2188" rx="0.90625" fill="white"/>
<rect x="30.8125" y="33.219" width="27.1875" height="16.9922" fill="white"/>
<path d="M58 43.1198C58 43.1198 50.7986 48.1751 37.6094 50.4377H58V43.1198Z" fill="#F48120"/>
<path d="M33.299 38.4572H32.1824V42.409H33.2931C33.8837 42.409 34.3102 42.2678 34.6846 41.9528C35.1294 41.5797 35.3925 41.0174 35.3925 40.4358C35.3926 39.2696 34.5327 38.4572 33.299 38.4572ZM34.1877 41.4258C33.9486 41.6445 33.6382 41.7399 33.1467 41.7399H32.9426V39.1268H33.1467C33.6382 39.1268 33.9365 39.2158 34.1877 39.4463C34.4508 39.6836 34.609 40.0515 34.609 40.43C34.609 40.8095 34.4508 41.1886 34.1877 41.4258Z" fill="#231F20"/>
<path d="M36.5034 38.4572H35.7427V42.409H36.5034V38.4572Z" fill="#231F20"/>
<path d="M38.3633 39.9736C37.9068 39.8025 37.7728 39.6895 37.7728 39.4761C37.7728 39.2271 38.0116 39.038 38.3395 39.038C38.5674 39.038 38.7547 39.1329 38.9529 39.358L39.3509 38.8299C39.0238 38.54 38.6324 38.3917 38.2049 38.3917C37.5149 38.3917 36.9885 38.8773 36.9885 39.5241C36.9885 40.0686 37.2336 40.3473 37.948 40.6078C38.2458 40.7142 38.3974 40.7851 38.4739 40.8328C38.6259 40.9334 38.702 41.0758 38.702 41.2417C38.702 41.5619 38.4508 41.7991 38.1114 41.7991C37.7485 41.7991 37.4563 41.6153 37.2812 41.2721L36.7898 41.7516C37.1403 42.2729 37.5612 42.504 38.14 42.504C38.9305 42.504 39.485 41.9714 39.485 41.2064C39.485 40.5785 39.2286 40.2942 38.3633 39.9736Z" fill="#231F20"/>
<path d="M39.7251 40.4357C39.7251 41.5973 40.6253 42.498 41.7836 42.498C42.1111 42.498 42.3915 42.4328 42.7374 42.2678V41.3603C42.4332 41.6687 42.1638 41.7931 41.819 41.7931C41.0529 41.7931 40.5092 41.2303 40.5092 40.43C40.5092 39.6713 41.0701 39.0727 41.7837 39.0727C42.1465 39.0727 42.4212 39.2039 42.7375 39.5174V38.6103C42.4035 38.4387 42.129 38.3676 41.8016 38.3676C40.649 38.3678 39.7251 39.2868 39.7251 40.4357Z" fill="#231F20"/>
<path d="M48.7687 41.1116L47.7287 38.4572H46.8977L48.5528 42.5104H48.9621L50.6469 38.4572H49.8223L48.7687 41.1116Z" fill="#231F20"/>
<path d="M50.991 42.409H53.1483V41.7401H51.7511V40.6733H53.0968V40.004H51.7511V39.1268H53.1483V38.4572H50.991V42.409Z" fill="#231F20"/>
<path d="M56.1599 39.6239C56.1599 38.884 55.657 38.4572 54.7798 38.4572H53.6519V42.409H54.4116V40.8215H54.5109L55.5637 42.409H56.4993L55.2716 40.7441C55.8445 40.6261 56.1599 40.229 56.1599 39.6239ZM54.6339 40.2766H54.4118V39.0796H54.646C55.1197 39.0796 55.3772 39.2808 55.3772 39.6654C55.3772 40.0627 55.1197 40.2766 54.6339 40.2766Z" fill="#231F20"/>
<path d="M45.0605 42.5491C46.2063 42.5491 47.1351 41.6078 47.1351 40.4468C47.1351 39.2857 46.2063 38.3445 45.0605 38.3445C43.9147 38.3445 42.9858 39.2857 42.9858 40.4468C42.9858 41.6078 43.9147 42.5491 45.0605 42.5491Z" fill="url(#paint0_linear_3277_11748)"/>
<path opacity="0.65" d="M45.0605 42.5491C46.2063 42.5491 47.1351 41.6078 47.1351 40.4468C47.1351 39.2857 46.2063 38.3445 45.0605 38.3445C43.9147 38.3445 42.9858 39.2857 42.9858 40.4468C42.9858 41.6078 43.9147 42.5491 45.0605 42.5491Z" fill="url(#paint1_linear_3277_11748)"/>
<path d="M56.6457 38.6057C56.6457 38.5364 56.5986 38.4985 56.5158 38.4985H56.4058V38.8459H56.4876V38.7111L56.5835 38.8459H56.6833L56.5706 38.7027C56.6191 38.6895 56.6457 38.6539 56.6457 38.6057ZM56.5015 38.6532H56.4877V38.5624H56.5023C56.5428 38.5624 56.5639 38.5771 56.5639 38.6071C56.5639 38.6377 56.5425 38.6532 56.5015 38.6532Z" fill="#231F20"/>
<path d="M56.5325 38.3688C56.366 38.3688 56.2339 38.5033 56.2339 38.6715C56.2339 38.8397 56.3675 38.9744 56.5325 38.9744C56.6946 38.9744 56.8275 38.8382 56.8275 38.6715C56.8275 38.5057 56.6946 38.3688 56.5325 38.3688ZM56.5312 38.9203C56.4002 38.9203 56.2931 38.8098 56.2931 38.672C56.2931 38.5337 56.3988 38.4233 56.5312 38.4233C56.6615 38.4233 56.7678 38.5363 56.7678 38.672C56.7678 38.8087 56.6616 38.9203 56.5312 38.9203Z" fill="#231F20"/>
</g>
<rect x="31.2656" y="33.6721" width="26.2812" height="16.3125" rx="0.453125" stroke="black" stroke-opacity="0.25" stroke-width="0.90625"/>
<defs>
<linearGradient id="paint0_linear_3277_11748" x1="46.1224" y1="42.1316" x2="44.6588" y2="39.8701" gradientUnits="userSpaceOnUse">
<stop stop-color="#F89F20"/>
<stop offset="0.2502" stop-color="#F79A20"/>
<stop offset="0.5331" stop-color="#F68D20"/>
<stop offset="0.6196" stop-color="#F58720"/>
<stop offset="0.7232" stop-color="#F48120"/>
<stop offset="1" stop-color="#F37521"/>
</linearGradient>
<linearGradient id="paint1_linear_3277_11748" x1="45.8955" y1="42.1006" x2="43.7516" y2="37.9655" gradientUnits="userSpaceOnUse">
<stop stop-color="#F58720" stop-opacity="0"/>
<stop offset="0.3587" stop-color="#E16F27" stop-opacity="0.2704"/>
<stop offset="0.703" stop-color="#D4602C" stop-opacity="0.5299"/>
<stop offset="0.9816" stop-color="#D05B2E" stop-opacity="0.74"/>
</linearGradient>
<clipPath id="clip0_3277_11748">
<rect x="30.8125" y="33.219" width="27.1875" height="17.2188" rx="0.90625" fill="white"/>
</clipPath>
</defs>
</svg>
