<svg width="39" height="24" viewBox="0 0 39 24" fill="none" xmlns="http://www.w3.org/2000/svg">
<rect x="0.199982" width="38" height="24" rx="2" fill="#10298E"/>
<path d="M19.3422 10.3975V10.3838L19.7395 9.53471C19.0905 8.83787 18.171 8.40063 17.1492 8.40063C15.6606 8.40063 14.3857 9.3252 13.8539 10.6369H13.1045L12.5681 11.7079H13.6015C13.5944 11.8048 13.5874 11.9018 13.5874 12.0006C13.5874 12.108 13.5938 12.2134 13.6028 12.3182H13.1045L12.6351 13.3755H13.8578C14.3928 14.6813 15.6638 15.6 17.1492 15.6C17.9772 15.6 18.7383 15.3111 19.3429 14.8322V13.4724C18.8819 14.0853 18.1601 14.4867 17.3398 14.4867C16.4751 14.4867 15.7121 14.0456 15.2575 13.3755H17.9064L18.4028 12.3182H14.8525C14.8332 12.1926 14.8139 12.0664 14.8139 11.9349C14.8139 11.8844 14.8204 11.8361 14.8269 11.7876C14.8304 11.7612 14.834 11.7347 14.8365 11.7079H18.6707L19.2077 10.6369H15.1764C15.6162 9.88931 16.4152 9.38311 17.3392 9.38311C18.1594 9.38311 18.8806 9.7852 19.3422 10.3975Z" fill="#FFBE00"/>
<path fill-rule="evenodd" clip-rule="evenodd" d="M30.1457 14.3241L30.5011 15.5656H32.4726L30.2996 8.40002H27.3886L25.2562 15.5656H27.2148L27.5734 14.3241H30.1457ZM29.7342 12.8875H27.988L28.8643 9.85097L29.7342 12.8875Z" fill="white"/>
<path fill-rule="evenodd" clip-rule="evenodd" d="M21.9165 13.6878H23.3381C23.3381 13.6878 24.4919 13.7951 25.0817 13.4971C25.6715 13.1991 25.846 12.6968 25.9265 12.3989C26.0031 12.1174 26.0429 11.1833 26.0472 11.0835L26.0475 11.0754C26.0636 10.7378 26.0559 9.95439 25.6992 9.2543C25.3264 8.52297 24.1359 8.41562 23.6601 8.40195L23.6324 8.4013C23.5242 8.3987 23.4585 8.4013 23.4585 8.4013H20.0248V15.5662H21.9165V13.6878ZM23.2847 9.91862H21.9165V12.0605H23.1752C23.351 12.0592 23.9524 12.03 24.009 11.6949C24.0715 11.3273 24.0683 10.918 24.0676 10.866C24.058 10.7228 24.0393 10.5244 23.9962 10.3123C23.915 9.91862 23.2847 9.91862 23.2847 9.91862Z" fill="white"/>
<path d="M10.6733 15.5217C10.6733 15.5217 11.8824 15.4619 12.2179 14.5406C12.5533 13.6186 12.3125 12.3974 12.3125 12.3974C12.3125 12.3974 12.1851 11.5749 11.0126 11.3446C11.0114 11.344 11.0113 11.3425 11.0112 11.3411C11.0111 11.3394 11.0111 11.3378 11.0094 11.3375C10.9469 11.3225 10.7821 11.3043 10.5696 11.2854H10.5677C10.1079 11.2451 9.42931 11.2028 9.052 11.18C9.04456 11.1775 9.03876 11.1748 9.03295 11.1722C9.0267 11.1693 9.02042 11.1664 9.01208 11.1637C8.28773 11.1768 8.27421 10.8521 8.27421 10.8111C8.27421 10.8047 8.27062 10.7894 8.26537 10.7671C8.23699 10.6463 8.16024 10.3196 8.34117 10.0791C8.54786 9.80455 9.37458 9.83968 9.43381 9.84228C9.61152 9.85009 9.85683 9.86441 9.97788 9.88913C10.1788 9.93012 10.3957 10.057 10.3668 10.6621H12.1509V10.1064C12.1509 10.1064 12.1915 9.14414 11.5206 8.76482C10.9778 8.45771 10.3893 8.41738 10.182 8.41282L10.1794 8.41217C10.1794 8.41217 9.10609 8.38484 8.59615 8.41217C8.30641 8.42844 7.92137 8.46943 7.56017 8.57223C7.32194 8.62623 7.08757 8.72123 6.89441 8.89169C6.88939 8.89609 6.88541 8.90137 6.88139 8.90671C6.87768 8.91163 6.87393 8.91661 6.8693 8.92097C6.86514 8.92458 6.86016 8.92735 6.85517 8.93012C6.84936 8.93335 6.84354 8.93659 6.83904 8.94114C6.82616 8.95334 6.82032 8.96529 6.81446 8.97729C6.81094 8.9845 6.80741 8.99173 6.80234 8.99905C6.21964 9.6523 6.32781 10.9204 6.54415 11.679C6.71606 12.2841 7.4153 12.4917 7.74689 12.5581L7.74914 12.5594L7.75139 12.5607C7.77457 12.5646 7.81514 12.5711 7.85506 12.5763C7.8623 12.5773 7.86769 12.5783 7.8726 12.5792C7.87728 12.5801 7.88159 12.5809 7.88661 12.5815C7.8911 12.5821 7.89559 12.5826 7.90008 12.5831C7.90458 12.5836 7.90914 12.5841 7.91365 12.5847C7.91558 12.5847 7.92459 12.586 7.92459 12.586C8.37466 12.6407 9.42029 12.7155 9.88388 12.7468L9.88452 12.7513C9.88452 12.7513 9.89482 12.75 9.90963 12.7487C10.0024 12.7549 10.0666 12.7594 10.094 12.7614L10.1079 12.7624C10.2837 12.7949 10.5001 12.8984 10.5013 13.2256L10.5015 13.2629C10.5034 13.6392 10.5038 13.7358 10.4608 13.7975C10.4337 13.8132 10.4099 13.8346 10.3938 13.8626C10.3108 14.0051 10.0094 14.0435 9.78987 14.0532H8.62319C8.12677 13.9849 8.14029 13.4429 8.14029 13.4429V13.2256H6.36966V13.4969C6.36966 13.4969 6.31557 14.6492 6.87896 15.0695C7.36636 15.4326 7.88725 15.5276 8.62319 15.5478V15.5575H9.4145C9.4145 15.5575 10.1067 15.5894 10.6733 15.5204V15.5217Z" fill="white"/>
</svg>
