<svg width="58" height="58" viewBox="0 0 58 58" fill="none" xmlns="http://www.w3.org/2000/svg">
<path d="M7.25008 19.3333C7.25008 17.9986 8.33206 16.9167 9.66675 16.9167H48.3334C49.6681 16.9167 50.7501 17.9986 50.7501 19.3333V44.7083H7.25008V19.3333Z" fill="#D8A6FF"/>
<path d="M12.0834 9.66667C12.0834 8.33198 13.1654 7.25 14.5001 7.25H43.5001C44.8348 7.25 45.9167 8.33198 45.9167 9.66667V24.1667C45.9167 25.5014 44.8348 26.5833 43.5001 26.5833H14.5001C13.1654 26.5833 12.0834 25.5014 12.0834 24.1667V9.66667Z" fill="#5BBBFC"/>
<path d="M2.41675 44.1042C2.41675 43.7705 2.68724 43.5 3.02091 43.5H54.9792C55.3129 43.5 55.5834 43.7705 55.5834 44.1042V45.9167C55.5834 47.2514 54.5014 48.3333 53.1667 48.3333H4.83342C3.49873 48.3333 2.41675 47.2514 2.41675 45.9167V44.1042Z" fill="#7252CC"/>
<path d="M45.9167 16.9167V24.1667C45.9167 25.5014 44.8348 26.5833 43.5001 26.5833H14.5001C13.1654 26.5833 12.0834 25.5014 12.0834 24.1667V16.9167H45.9167Z" fill="#FAF8F5"/>
<path d="M21.7501 44.7083C21.7501 44.041 22.2911 43.5 22.9584 43.5H35.0417C35.7091 43.5 36.2501 44.041 36.2501 44.7083C36.2501 45.3757 35.7091 45.9167 35.0417 45.9167H22.9584C22.2911 45.9167 21.7501 45.3757 21.7501 44.7083Z" fill="#FAF8F5"/>
<path d="M36.2501 16.9167C36.2501 20.9207 33.0041 24.1667 29.0001 24.1667C24.996 24.1667 21.7501 20.9207 21.7501 16.9167C21.7501 12.9126 24.996 9.66667 29.0001 9.66667C33.0041 9.66667 36.2501 12.9126 36.2501 16.9167Z" fill="#001C64"/>
</svg>
