<svg width="58" height="58" viewBox="0 0 58 58" fill="none" xmlns="http://www.w3.org/2000/svg">
<path d="M47.125 25.375C47.125 35.3852 39.0102 43.5 29 43.5C18.9898 43.5 10.875 35.3852 10.875 25.375C10.875 15.3648 18.9898 7.25 29 7.25C39.0102 7.25 47.125 15.3648 47.125 25.375Z" fill="#DD7F57"/>
<path d="M14.5 45.9167C14.5 37.9085 20.9919 31.4167 29 31.4167C37.0081 31.4167 43.5 37.9085 43.5 45.9167V50.0064C43.5 50.4171 43.1671 50.75 42.7564 50.75H15.2436C14.8329 50.75 14.5 50.4171 14.5 50.0064V45.9167Z" fill="#5BBBFC"/>
<path d="M29 29C33.0041 29 36.25 25.7541 36.25 21.75C36.25 17.7459 33.0041 14.5 29 14.5C24.9959 14.5 21.75 17.7459 21.75 21.75C21.75 25.7541 24.9959 29 29 29Z" fill="#FAF8F5"/>
<path d="M29 31.4167C23.6925 31.4167 19.0507 34.2683 16.5237 38.523C19.7734 41.6075 24.1659 43.5 29 43.5C33.8342 43.5 38.2259 41.6075 41.4756 38.523C38.9486 34.2683 34.3075 31.4167 29 31.4167Z" fill="#FAF8F5"/>
</svg>
