<svg width="58" height="58" viewBox="0 0 58 58" fill="none" xmlns="http://www.w3.org/2000/svg">
<rect y="0.000488281" width="58" height="58" rx="3" fill="white"/>
<rect x="0.5" y="0.500488" width="57" height="57" rx="2.5" stroke="black" stroke-opacity="0.07"/>
<path fill-rule="evenodd" clip-rule="evenodd" d="M15.6557 23.0408C15.1747 23.6163 14.405 24.0702 13.6354 24.0053C13.5392 23.2272 13.916 22.4005 14.3569 21.8898C14.8379 21.2981 15.6797 20.8767 16.3611 20.8442C16.4413 21.6548 16.1286 22.4491 15.6557 23.0408ZM16.3527 24.1591C15.6747 24.1197 15.056 24.3653 14.5563 24.5637C14.2347 24.6914 13.9624 24.7995 13.7552 24.7995C13.5228 24.7995 13.2392 24.6856 12.9208 24.5577C12.5037 24.3901 12.0267 24.1986 11.5266 24.2078C10.3802 24.224 9.31398 24.8805 8.72875 25.9261C7.52624 28.0173 8.4161 31.1136 9.57853 32.8157C10.1477 33.6587 10.8291 34.5827 11.727 34.5503C12.122 34.5352 12.4062 34.4133 12.7002 34.2871C13.0388 34.1419 13.3905 33.991 13.9396 33.991C14.4697 33.991 14.8061 34.1379 15.1289 34.279C15.4359 34.4131 15.7307 34.5419 16.1683 34.534C17.0982 34.5178 17.6835 33.6911 18.2526 32.8481C18.8669 31.9434 19.1368 31.0604 19.1778 30.9264L19.1826 30.9109C19.1816 30.9099 19.174 30.9064 19.1607 30.9003L19.1607 30.9003L19.1606 30.9002C18.9553 30.8052 17.3859 30.0788 17.3708 28.1308C17.3557 26.4957 18.6156 25.6673 18.814 25.5369C18.826 25.529 18.8342 25.5236 18.8379 25.5208C18.0362 24.3212 16.7856 24.1916 16.3527 24.1591ZM22.7899 34.4452V21.8089H27.4797C29.9007 21.8089 31.5923 23.4948 31.5923 25.9589C31.5923 28.4229 29.8687 30.125 27.4155 30.125H24.7299V34.4452H22.7899ZM24.7298 23.4621H26.9665C28.65 23.4621 29.612 24.3699 29.612 25.9667C29.612 27.5634 28.65 28.4793 26.9585 28.4793H24.7298V23.4621ZM37.9971 32.9291C37.4841 33.9179 36.3537 34.542 35.1352 34.542C33.3314 34.542 32.0728 33.4559 32.0728 31.8186C32.0728 30.1976 33.2913 29.2654 35.544 29.1276L37.9651 28.9818V28.2847C37.9651 27.2553 37.2997 26.696 36.1132 26.696C35.1352 26.696 34.4217 27.2067 34.2774 27.9848H32.5297C32.5858 26.3475 34.109 25.156 36.1693 25.156C38.3899 25.156 39.833 26.3313 39.833 28.155V34.4448H38.0372V32.9291H37.9971ZM35.6573 33.0428C34.6232 33.0428 33.9658 32.5403 33.9658 31.7703C33.9658 30.976 34.5991 30.514 35.8096 30.441L37.9661 30.3032V31.0165C37.9661 32.1999 36.9721 33.0428 35.6573 33.0428ZM45.7894 34.9398C45.0118 37.1525 44.1219 37.882 42.23 37.882C42.0857 37.882 41.6047 37.8658 41.4924 37.8334V36.3177C41.6127 36.3339 41.9093 36.3501 42.0616 36.3501C42.9194 36.3501 43.4004 35.9854 43.697 35.037L43.8734 34.4778L40.5865 25.2781H42.6148L44.8996 32.7432H44.9396L47.2244 25.2781H49.1965L45.7894 34.9398Z" fill="black"/>
</svg>
