<svg width="58" height="58" viewBox="0 0 58 58" fill="none" xmlns="http://www.w3.org/2000/svg">
<rect y="0.000488281" width="58" height="58" rx="3" fill="white"/>
<rect x="0.5" y="0.500488" width="57" height="57" rx="2.5" stroke="black" stroke-opacity="0.07"/>
<path d="M43.8324 25.8711H42.058H33.8477H32.0734L30.8704 27.2244L26.9908 31.6002L25.7878 32.9536H24.0134H15.9535H14.1792L15.3521 31.5852L15.9084 30.9386L17.0813 29.5702H15.3069H13.0213H11.7431C10.7657 29.5702 9.96875 30.3973 9.96875 31.3897V34.9084V35.2392C9.96875 36.2467 10.7657 37.0587 11.7431 37.0587H12.2394H30.8854H32.2237C33.2012 37.0587 34.5395 36.4422 35.1861 35.7054L38.2837 32.1867L43.8324 25.8711Z" fill="#004E91"/>
<path d="M46.1945 21.7655C47.1719 21.7655 47.9689 22.5926 47.9689 23.585V27.4345C47.9689 28.442 47.1719 29.254 46.1945 29.254H45.2321H42.6307H40.8563L42.0443 27.9007L42.6307 27.224L43.8186 25.8707H32.0596L25.7891 32.9381H14.1052L22.4809 23.4647L22.7967 23.1038C23.4583 22.367 24.7966 21.7505 25.7741 21.7505H26.1801H46.1945V21.7655Z" fill="#FFDD00"/>
</svg>
