<svg width="39" height="24" viewBox="0 0 39 24" fill="none" xmlns="http://www.w3.org/2000/svg">
<g clip-path="url(#clip0_2758_23814)">
<rect x="0.399902" width="38" height="24" rx="2" fill="white"/>
<path d="M34.2973 5.9001L35.0647 3.81349L38.3999 3.79747V0L0.399902 0.0160139V24L38.3999 23.984V20.1945L35.2646 20.2105L34.0414 18.7795L32.7703 20.2105H23.3686V12.5916H20.2666L24.1441 3.81349H27.9175L28.8289 5.80416V3.81349H33.5138L34.2973 5.9001ZM31.6511 7.28317L31.643 6.44372L31.9628 7.28317L33.5218 11.4484H35.0727L36.6397 7.28317L36.9435 6.45173V11.4484L38.3999 11.4324V5.03664L35.8642 5.05265L34.633 8.29851L34.3053 9.1779L33.9695 8.29851L32.7303 5.05265H30.0201V11.4484H31.6511V7.28317ZM28.1414 11.4484H30.0201L27.206 5.05265H25.0235L22.1933 11.4484H24.0481L24.5438 10.2172H27.6457L28.1414 11.4484ZM25.775 7.21923L26.0947 6.41974L26.4145 7.21923L27.0781 8.83411H25.1114L25.775 7.21923ZM24.6797 12.5996V18.9714H30.0201V17.5883H26.3106V16.477H29.9482V15.1019H26.3106V13.9827H30.0201V12.5996H24.6797ZM35.9602 18.9714H38.0788L35.0887 15.7735L38.0788 12.5996H35.9922L34.0654 14.6702L32.1467 12.5996H30.0201L33.0021 15.7975L30.0201 18.9714H32.0828L34.0255 16.8927L35.9602 18.9714ZM36.7676 15.7655L38.3999 17.5883V13.9347L36.7676 15.7655Z" fill="#006FCF"/>
</g>
<rect x="0.899902" y="0.5" width="37" height="23" rx="1.5" stroke="black" stroke-opacity="0.1"/>
<defs>
<clipPath id="clip0_2758_23814">
<rect x="0.399902" width="38" height="24" rx="2" fill="white"/>
</clipPath>
</defs>
</svg>
