<svg width="39" height="24" viewBox="0 0 39 24" fill="none" xmlns="http://www.w3.org/2000/svg">
<g clip-path="url(#clip0_2758_23815)">
<rect x="0.399902" width="38" height="24" rx="2" fill="white"/>
<rect x="0.399902" width="38" height="24" fill="url(#paint0_linear_2758_23815)"/>
<path d="M0.399916 0.85334V23.1467C0.399916 23.373 0.399902 24 0.399902 24C0.399902 24 1.01789 24 1.24094 24H24.5709C27.7074 24 30.7155 22.7361 32.9338 20.4862C35.152 18.2363 36.3988 15.1846 36.3999 12.0021C36.3999 10.426 36.0939 8.86529 35.4995 7.40912C34.905 5.95296 34.0337 4.62985 32.9353 3.51535C31.8368 2.40085 30.5328 1.51678 29.0977 0.913615C27.6625 0.310451 26.1243 6.74575e-06 24.5709 6.74575e-06H1.24094C1.01789 6.74575e-06 0.39991 0 0.39991 0C0.39991 0 0.399916 0.627022 0.399916 0.85334Z" fill="white"/>
<path d="M4.75728 10.1409H3.3999V14.8589H4.73434C5.34604 14.8927 5.9485 14.6985 6.42437 14.3139C6.69415 14.0945 6.91212 13.8185 7.06279 13.5057C7.21346 13.1928 7.29314 12.8507 7.29616 12.5037C7.29616 11.1127 6.26378 10.1409 4.75728 10.1409ZM5.83554 13.6851C5.48003 13.9724 5.02559 14.1093 4.56993 14.0662H4.32521V10.9412H4.56993C4.79567 10.9184 5.02372 10.9403 5.24092 11.0057C5.45813 11.0711 5.66021 11.1787 5.83554 11.3223C5.99719 11.4724 6.12611 11.6541 6.21425 11.856C6.3024 12.058 6.34789 12.2758 6.3479 12.4961C6.34885 12.7187 6.30386 12.9391 6.21572 13.1436C6.12758 13.3482 5.99817 13.5325 5.83554 13.6851Z" fill="#261F20"/>
<path d="M8.64585 10.141H7.72437V14.859H8.64585V10.141Z" fill="#261F20"/>
<path d="M10.9019 11.9513C10.3475 11.7493 10.1869 11.6121 10.1869 11.3606C10.1869 11.109 10.4775 10.8347 10.8751 10.8347C11.0198 10.8373 11.1619 10.873 11.2905 10.9391C11.4191 11.0052 11.5308 11.0998 11.6169 11.2158L12.1025 10.5831C11.7195 10.2432 11.2235 10.0571 10.7107 10.061C10.5238 10.0497 10.3366 10.0761 10.1602 10.1385C9.9838 10.201 9.82185 10.2983 9.68406 10.4246C9.54627 10.5509 9.43546 10.7037 9.35826 10.8736C9.28106 11.0436 9.23907 11.2274 9.23478 11.4139C9.23478 12.0618 9.53302 12.3972 10.401 12.7058C10.6211 12.7747 10.8337 12.8654 11.0357 12.9764C11.1214 13.0258 11.1925 13.0969 11.2415 13.1827C11.2906 13.2684 11.3159 13.3656 11.3148 13.4642C11.314 13.5557 11.2944 13.6459 11.2573 13.7296C11.2202 13.8132 11.1663 13.8883 11.099 13.9504C11.0317 14.0125 10.9523 14.0603 10.8658 14.0907C10.7793 14.1211 10.6875 14.1336 10.596 14.1273C10.3852 14.1311 10.1779 14.0737 9.99934 13.962C9.82077 13.8504 9.67867 13.6893 9.59038 13.4985L8.9939 14.0702C9.16086 14.3524 9.40082 14.5848 9.6887 14.743C9.97658 14.9012 10.3018 14.9795 10.6304 14.9696C10.8417 14.9838 11.0537 14.9542 11.2529 14.8826C11.4521 14.811 11.6343 14.6989 11.7877 14.5534C11.9412 14.4079 12.0627 14.2323 12.1446 14.0376C12.2264 13.8429 12.2667 13.6334 12.2631 13.4223C12.2631 12.6754 11.9534 12.3362 10.9019 11.9513Z" fill="#261F20"/>
<path d="M12.5575 12.5038C12.5543 12.8306 12.6171 13.1547 12.742 13.4568C12.867 13.7589 13.0515 14.0329 13.2848 14.2625C13.518 14.4922 13.7952 14.6727 14.0998 14.7935C14.4045 14.9143 14.7303 14.9729 15.0581 14.9657C15.458 14.9604 15.851 14.8612 16.2052 14.6761V13.609C16.0668 13.7694 15.8956 13.8983 15.703 13.987C15.5104 14.0758 15.3009 14.1223 15.0887 14.1235C14.8738 14.1326 14.6594 14.0964 14.4594 14.0172C14.2595 13.9381 14.0786 13.8178 13.9285 13.6642C13.7783 13.5107 13.6624 13.3272 13.5883 13.126C13.5141 12.9247 13.4834 12.7101 13.4981 12.4962C13.4899 12.2862 13.5241 12.0767 13.5986 11.8802C13.6731 11.6836 13.7865 11.5039 13.932 11.3518C14.0775 11.1997 14.2521 11.0782 14.4455 10.9946C14.639 10.911 14.8473 10.867 15.0581 10.8651C15.2765 10.8673 15.4918 10.916 15.6896 11.0081C15.8875 11.1001 16.0633 11.2333 16.2052 11.3987V10.3278C15.8542 10.134 15.4593 10.033 15.0581 10.0343C14.7312 10.0328 14.4073 10.0955 14.1047 10.2188C13.8021 10.3421 13.5269 10.5236 13.2946 10.7529C13.0624 10.9822 12.8778 11.2549 12.7513 11.5553C12.6249 11.8557 12.559 12.178 12.5575 12.5038Z" fill="#261F20"/>
<path d="M23.5312 13.3117L22.2694 10.141H21.26L23.2712 14.9809H23.7683L25.8101 10.141H24.8121L23.5312 13.3117Z" fill="#261F20"/>
<path d="M26.2307 14.859H28.8461V14.0625H27.1522V12.7896H28.7849V11.9893H27.1522V10.9413H28.8461V10.141H26.2307V14.859Z" fill="#261F20"/>
<path d="M32.5052 11.5358C32.5052 10.6517 31.8934 10.141 30.8266 10.141H29.4578V14.859H30.3793V12.9535H30.5016L31.7787 14.859H32.9258L31.4346 12.8735C31.7494 12.8263 32.0347 12.6622 32.2333 12.4141C32.4319 12.166 32.529 11.8523 32.5052 11.5358ZM30.6507 12.298H30.3793V10.8841H30.666C31.2396 10.8841 31.5531 11.1242 31.5531 11.5854C31.5531 12.0465 31.2396 12.3132 30.6507 12.3132V12.298Z" fill="#261F20"/>
<path d="M33.2389 10.3885C33.2389 10.3086 33.1817 10.2629 33.0824 10.2629H32.9487V10.6778H33.048V10.5179L33.1626 10.6778H33.2847L33.1473 10.5065C33.1742 10.5011 33.1983 10.4862 33.2151 10.4645C33.2319 10.4428 33.2404 10.4159 33.2389 10.3885ZM33.0633 10.4456V10.3391C33.1129 10.3391 33.1397 10.3391 33.1397 10.3923C33.1397 10.4456 33.1129 10.4456 33.0633 10.4456Z" fill="#261F20"/>
<path d="M33.1017 10.1029C33.0252 10.128 32.9586 10.1765 32.9114 10.2415C32.8642 10.3065 32.8387 10.3847 32.8387 10.4649C32.8387 10.5452 32.8642 10.6234 32.9114 10.6884C32.9586 10.7534 33.0252 10.8019 33.1017 10.827C33.1782 10.8019 33.2448 10.7534 33.292 10.6884C33.3393 10.6234 33.3647 10.5452 33.3647 10.4649C33.3647 10.3847 33.3393 10.3065 33.292 10.2415C33.2448 10.1765 33.1782 10.128 33.1017 10.1029ZM33.1017 10.7622C33.0226 10.7622 32.9467 10.7309 32.8908 10.6751C32.8349 10.6194 32.8035 10.5438 32.8035 10.4649C32.8035 10.3861 32.8349 10.3105 32.8908 10.2548C32.9467 10.199 33.0226 10.1677 33.1017 10.1677C33.1808 10.1677 33.2567 10.199 33.3126 10.2548C33.3685 10.3105 33.3999 10.3861 33.3999 10.4649C33.3999 10.5438 33.3685 10.6194 33.3126 10.6751C33.2567 10.7309 33.1808 10.7622 33.1017 10.7622Z" fill="#261F20"/>
<path d="M21.5239 12.4962C21.5246 12.991 21.3781 13.4748 21.1028 13.8865C20.8274 14.2983 20.4357 14.6193 19.9773 14.809C19.5188 14.9987 19.0141 15.0485 18.5272 14.9521C18.0403 14.8558 17.593 14.6176 17.242 14.2678C16.891 13.9179 16.652 13.4721 16.5553 12.9868C16.4587 12.5015 16.5087 11.9985 16.699 11.5415C16.8893 11.0846 17.2114 10.6942 17.6245 10.4197C18.0375 10.1453 18.523 9.99925 19.0194 10C19.6833 10.001 20.3198 10.2643 20.7892 10.7322C21.2587 11.2001 21.5229 11.8345 21.5239 12.4962Z" fill="url(#paint1_linear_2758_23815)"/>
<path style="mix-blend-mode:multiply" opacity="0.65" d="M21.5239 12.4962C21.5246 12.991 21.3781 13.4748 21.1028 13.8865C20.8274 14.2983 20.4357 14.6193 19.9773 14.809C19.5188 14.9987 19.0141 15.0485 18.5272 14.9521C18.0403 14.8558 17.593 14.6176 17.242 14.2678C16.891 13.9179 16.652 13.4721 16.5553 12.9868C16.4587 12.5015 16.5087 11.9985 16.699 11.5415C16.8893 11.0846 17.2114 10.6942 17.6245 10.4197C18.0375 10.1453 18.523 9.99925 19.0194 10C19.6833 10.001 20.3198 10.2643 20.7892 10.7322C21.2587 11.2001 21.5229 11.8345 21.5239 12.4962Z" fill="url(#paint2_linear_2758_23815)"/>
</g>
<rect x="0.899902" y="0.5" width="37" height="23" rx="1.5" stroke="black" stroke-opacity="0.1"/>
<defs>
<linearGradient id="paint0_linear_2758_23815" x1="19.3999" y1="0" x2="19.3999" y2="24" gradientUnits="userSpaceOnUse">
<stop stop-color="#E96418"/>
<stop offset="1" stop-color="#F9A020"/>
</linearGradient>
<linearGradient id="paint1_linear_2758_23815" x1="20.3003" y1="14.497" x2="18.5726" y2="11.786" gradientUnits="userSpaceOnUse">
<stop stop-color="#FF9200"/>
<stop offset="0.21" stop-color="#FF8D00"/>
<stop offset="0.45" stop-color="#FF8000"/>
<stop offset="0.62" stop-color="#FF7100"/>
<stop offset="0.82" stop-color="#FF5E00"/>
<stop offset="1" stop-color="#FF5200"/>
</linearGradient>
<linearGradient id="paint2_linear_2758_23815" x1="20.025" y1="14.4627" x2="17.5033" y2="9.51306" gradientUnits="userSpaceOnUse">
<stop stop-color="#FF7100" stop-opacity="0"/>
<stop offset="0.03" stop-color="#FF6E00" stop-opacity="0.03"/>
<stop offset="0.21" stop-color="#FF5A00" stop-opacity="0.25"/>
<stop offset="0.39" stop-color="#FF4900" stop-opacity="0.42"/>
<stop offset="0.56" stop-color="#FF3C00" stop-opacity="0.56"/>
<stop offset="0.72" stop-color="#FF3300" stop-opacity="0.66"/>
<stop offset="0.86" stop-color="#FF2D00" stop-opacity="0.72"/>
<stop offset="0.98" stop-color="#FF2B00" stop-opacity="0.74"/>
</linearGradient>
<clipPath id="clip0_2758_23815">
<rect x="0.399902" width="38" height="24" rx="2" fill="white"/>
</clipPath>
</defs>
</svg>
