<svg width="39" height="24" viewBox="0 0 39 24" fill="none" xmlns="http://www.w3.org/2000/svg">
<rect x="0.199951" width="38" height="24" rx="2" fill="white"/>
<rect x="0.699951" y="0.5" width="37" height="23" rx="1.5" stroke="black" stroke-opacity="0.07"/>
<path d="M28.9177 6.32788H27.7552H22.3761H21.2135L20.4254 7.22389L17.8836 10.121L17.0954 11.017H15.9329H10.6523H9.48974L10.2582 10.111L10.6227 9.68292L11.3912 8.77696H10.2286H8.73114H7.89373C7.25335 8.77696 6.7312 9.32452 6.7312 9.98159V12.3112V12.5302C6.7312 13.1973 7.25335 13.7349 7.89373 13.7349H8.21884H20.4352H21.3121C21.9524 13.7349 22.8293 13.3267 23.2529 12.8389L25.2824 10.5092L28.9177 6.32788Z" fill="#004E91"/>
<path d="M30.4655 3.60993C31.1059 3.60993 31.6281 4.15749 31.6281 4.81456V7.3632C31.6281 8.03023 31.1059 8.56783 30.4655 8.56783H29.835H28.1306H26.9681L27.7464 7.67183L28.1306 7.22382L28.9089 6.32782H21.2047L17.0965 11.007H9.44153L14.9291 4.73492L15.1359 4.49598C15.5694 4.00816 16.4462 3.59998 17.0866 3.59998H17.3526H30.4655V3.60993Z" fill="#FFDD00"/>
<path d="M31.627 19.0705V18.7021C31.627 18.6524 31.5975 18.6225 31.5285 18.6225H31.2921C31.2231 18.6225 31.1738 18.6125 31.164 18.5827C31.1443 18.5528 31.1443 18.4931 31.1443 18.3935V16.9997H31.5285C31.5581 16.9997 31.5778 16.9898 31.5975 16.9699C31.6172 16.9499 31.627 16.93 31.627 16.9002V16.5119C31.627 16.482 31.6172 16.4621 31.5975 16.4422C31.5778 16.4223 31.5581 16.4123 31.5285 16.4123H31.1443V15.9046C31.1443 15.8747 31.1344 15.8548 31.1246 15.8449C31.1049 15.8349 31.0852 15.825 31.0655 15.825H31.0556L30.4842 15.9245C30.4546 15.9345 30.4349 15.9444 30.4152 15.9544C30.3955 15.9743 30.3857 15.9942 30.3857 16.0141V16.4024H30.0015C29.9719 16.4024 29.9522 16.4123 29.9325 16.4322C29.9128 16.4522 29.9029 16.4721 29.9029 16.5019V16.8205C29.9029 16.8504 29.9128 16.8703 29.9325 16.8803C29.9522 16.9002 29.9719 16.9101 30.0015 16.9201L30.3857 16.9798V18.3736C30.3857 18.5428 30.4054 18.6822 30.4349 18.7917C30.4743 18.9012 30.5236 18.9809 30.5827 19.0406C30.6517 19.1004 30.7305 19.1402 30.829 19.1601C30.9275 19.18 31.0458 19.19 31.1738 19.19C31.2428 19.19 31.3019 19.19 31.361 19.18C31.4103 19.17 31.4792 19.1601 31.5482 19.1501C31.5975 19.1501 31.627 19.1203 31.627 19.0705ZM29.5778 19.0207V18.5926C29.5778 18.5628 29.568 18.5428 29.5483 18.5329C29.5286 18.5229 29.5089 18.513 29.4891 18.513H29.4793C29.3906 18.5229 29.302 18.5329 29.2232 18.5329C29.1443 18.5428 29.036 18.5428 28.898 18.5428C28.8488 18.5428 28.7897 18.5329 28.7503 18.513C28.701 18.4931 28.6616 18.4632 28.6222 18.4234C28.5828 18.3836 28.5631 18.3238 28.5434 18.2541C28.5237 18.1844 28.5138 18.0948 28.5138 17.9853V17.5871C28.5138 17.4776 28.5237 17.388 28.5434 17.3183C28.5631 17.2486 28.5926 17.1889 28.6222 17.1491C28.6616 17.1092 28.701 17.0794 28.7503 17.0595C28.7995 17.0395 28.8488 17.0296 28.898 17.0296C29.036 17.0296 29.1443 17.0296 29.2232 17.0395C29.302 17.0495 29.3906 17.0495 29.4793 17.0595H29.4891C29.5187 17.0595 29.5384 17.0495 29.5483 17.0395C29.568 17.0296 29.5778 17.0097 29.5778 16.9798V16.5517C29.5778 16.5119 29.568 16.492 29.5581 16.482C29.5384 16.4721 29.5187 16.4522 29.4793 16.4422C29.4103 16.4223 29.3315 16.4123 29.2232 16.3924C29.1148 16.3725 28.9966 16.3725 28.8488 16.3725C28.5138 16.3725 28.2478 16.4721 28.0409 16.6811C27.8439 16.8902 27.7355 17.1889 27.7355 17.5871V17.9853C27.7355 18.3736 27.834 18.6822 28.0409 18.8913C28.238 19.1004 28.5138 19.1999 28.8488 19.1999C28.9867 19.1999 29.1148 19.19 29.2232 19.18C29.3315 19.1601 29.4202 19.1501 29.4793 19.1302C29.5187 19.1203 29.5384 19.1103 29.5581 19.0904C29.5778 19.0804 29.5778 19.0506 29.5778 19.0207ZM26.4942 18.513C26.4351 18.5428 26.3759 18.5628 26.307 18.5827C26.238 18.6026 26.1691 18.6125 26.1001 18.6125C26.0016 18.6125 25.9228 18.6026 25.8735 18.5727C25.8242 18.5428 25.8045 18.4831 25.8045 18.3736V18.3338C25.8045 18.274 25.8144 18.2243 25.8242 18.1844C25.8341 18.1446 25.8636 18.1048 25.8932 18.0749C25.9228 18.0451 25.972 18.0251 26.0213 18.0052C26.0705 17.9953 26.1395 17.9853 26.2282 17.9853H26.4942V18.513ZM27.2429 17.3482C27.2429 17.169 27.2134 17.0196 27.1641 16.9002C27.1148 16.7807 27.036 16.6811 26.9474 16.6015C26.8488 16.5218 26.7405 16.4621 26.6025 16.4322C26.4646 16.3924 26.307 16.3725 26.1395 16.3725C25.9819 16.3725 25.8242 16.3825 25.6765 16.4024C25.5287 16.4223 25.4105 16.4422 25.3218 16.4721C25.2627 16.492 25.2331 16.5218 25.2331 16.5816V16.9699C25.2331 16.9997 25.243 17.0196 25.2528 17.0395C25.2725 17.0495 25.2922 17.0595 25.3119 17.0595H25.3316C25.371 17.0595 25.4203 17.0495 25.4696 17.0495C25.5287 17.0495 25.5878 17.0395 25.6568 17.0395C25.7257 17.0395 25.8045 17.0296 25.8833 17.0296C25.9622 17.0296 26.041 17.0296 26.1099 17.0296C26.2183 17.0296 26.307 17.0495 26.3661 17.0893C26.4252 17.1291 26.4646 17.2187 26.4646 17.3581V17.5274H26.2085C25.8045 17.5274 25.4991 17.5871 25.3218 17.7165C25.1346 17.8459 25.0459 18.055 25.0459 18.3338V18.3736C25.0459 18.5329 25.0656 18.6623 25.1149 18.7619C25.1642 18.8714 25.2233 18.951 25.3021 19.0207C25.3809 19.0804 25.4597 19.1302 25.5582 19.1601C25.6568 19.19 25.7553 19.1999 25.8636 19.1999C26.0016 19.1999 26.1296 19.18 26.2282 19.1402C26.3267 19.1004 26.4252 19.0506 26.5237 18.9809V19.0605C26.5237 19.0904 26.5336 19.1103 26.5533 19.1302C26.573 19.1501 26.5927 19.1601 26.6222 19.1601H27.1542C27.1838 19.1601 27.2035 19.1501 27.2232 19.1302C27.2429 19.1103 27.2528 19.0904 27.2528 19.0605V17.3482H27.2429ZM24.711 19.0705V18.7021C24.711 18.6524 24.6814 18.6225 24.6124 18.6225H24.3859C24.3169 18.6225 24.2676 18.6125 24.2578 18.5827C24.2381 18.5528 24.2381 18.4931 24.2381 18.3935V16.9997H24.6223C24.6519 16.9997 24.6716 16.9898 24.6913 16.9699C24.711 16.9499 24.7208 16.93 24.7208 16.9002V16.5119C24.7208 16.482 24.711 16.4621 24.6913 16.4422C24.6716 16.4223 24.6519 16.4123 24.6223 16.4123H24.2381V15.9046C24.2381 15.8747 24.2282 15.8548 24.2184 15.8449C24.1987 15.8349 24.179 15.825 24.1593 15.825H24.1494L23.578 15.9245C23.5484 15.9345 23.5287 15.9444 23.509 15.9544C23.4893 15.9743 23.4795 15.9942 23.4795 16.0141V16.4024H23.0953C23.0657 16.4024 23.046 16.4123 23.0263 16.4322C23.0066 16.4522 22.9967 16.4721 22.9967 16.5019V16.8205C22.9967 16.8504 23.0066 16.8703 23.0263 16.8803C23.046 16.9002 23.0657 16.9101 23.0953 16.9201L23.4795 16.9798V18.3736C23.4795 18.5428 23.4992 18.6822 23.5287 18.7917C23.5681 18.9012 23.6174 18.9809 23.6765 19.0406C23.7356 19.1004 23.8243 19.1402 23.9228 19.1601C24.0213 19.18 24.1396 19.19 24.2676 19.19C24.3366 19.19 24.3957 19.19 24.4548 19.18C24.5041 19.17 24.573 19.1601 24.642 19.1501C24.6814 19.1501 24.711 19.1203 24.711 19.0705ZM22.6421 19.0605V17.4676C22.6421 17.3183 22.6322 17.1789 22.6027 17.0395C22.5829 16.9101 22.5337 16.7907 22.4746 16.6911C22.4155 16.5915 22.3268 16.5119 22.2184 16.4621C22.1101 16.4024 21.9721 16.3725 21.7948 16.3725C21.647 16.3725 21.5091 16.3924 21.3909 16.4322C21.2726 16.4721 21.1544 16.5318 21.0165 16.6314V16.5119C21.0165 16.482 21.0066 16.4621 20.9869 16.4422C20.9672 16.4223 20.9475 16.4123 20.918 16.4123H20.386C20.3564 16.4123 20.3367 16.4223 20.317 16.4422C20.2973 16.4621 20.2875 16.482 20.2875 16.5119V19.0605C20.2875 19.0904 20.2973 19.1103 20.317 19.1302C20.3367 19.1501 20.3564 19.1601 20.386 19.1601H20.9574C20.9869 19.1601 21.0066 19.1501 21.0263 19.1302C21.046 19.1103 21.0559 19.0904 21.0559 19.0605V17.1789C21.1347 17.1391 21.2135 17.0993 21.2923 17.0694C21.3613 17.0395 21.4401 17.0296 21.5091 17.0296C21.5781 17.0296 21.6372 17.0395 21.6864 17.0495C21.7357 17.0595 21.7652 17.0893 21.7948 17.1192C21.8244 17.159 21.8342 17.1988 21.8441 17.2586C21.8539 17.3183 21.8539 17.388 21.8539 17.4676V19.0605C21.8539 19.0904 21.8638 19.1103 21.8835 19.1302C21.9032 19.1501 21.9229 19.1601 21.9524 19.1601H22.5238C22.5534 19.1601 22.5731 19.1501 22.5928 19.1302C22.6322 19.1103 22.6421 19.0804 22.6421 19.0605ZM19.056 17.9555C19.056 18.3437 18.918 18.5428 18.6323 18.5428C18.4944 18.5428 18.386 18.4931 18.3171 18.3935C18.2481 18.294 18.2087 18.1446 18.2087 17.9555V17.617C18.2087 17.4179 18.2481 17.2785 18.3171 17.1789C18.386 17.0794 18.4944 17.0296 18.6323 17.0296C18.9082 17.0296 19.056 17.2287 19.056 17.617V17.9555ZM19.8244 17.617C19.8244 17.4278 19.7949 17.2486 19.7456 17.0993C19.6963 16.9499 19.6175 16.8205 19.519 16.711C19.4205 16.6015 19.2924 16.5218 19.1446 16.4621C18.9969 16.4024 18.8294 16.3725 18.6323 16.3725C18.4353 16.3725 18.2678 16.4024 18.12 16.4621C17.9722 16.5218 17.8442 16.6015 17.7457 16.711C17.6471 16.8205 17.5683 16.9499 17.5191 17.0993C17.4698 17.2486 17.4402 17.4278 17.4402 17.617V17.9555C17.4402 18.1446 17.4698 18.3238 17.5191 18.4732C17.5683 18.6225 17.6471 18.7519 17.7457 18.8614C17.8442 18.9709 17.9722 19.0506 18.12 19.1103C18.2678 19.17 18.4353 19.1999 18.6323 19.1999C18.8294 19.1999 18.9969 19.17 19.1446 19.1103C19.2924 19.0506 19.4205 18.9709 19.519 18.8614C19.6175 18.7519 19.6963 18.6225 19.7456 18.4732C19.7949 18.3238 19.8244 18.1446 19.8244 17.9555V17.617ZM17.1841 19.0207V18.5926C17.1841 18.5628 17.1742 18.5428 17.1545 18.5329C17.1348 18.5229 17.1151 18.513 17.0856 18.513H17.0757C16.9871 18.5229 16.8984 18.5329 16.8196 18.5329C16.7408 18.5329 16.6324 18.5428 16.4945 18.5428C16.4452 18.5428 16.3861 18.5329 16.3467 18.513C16.2974 18.4931 16.258 18.4632 16.2186 18.4234C16.1792 18.3836 16.1595 18.3238 16.1398 18.2541C16.1201 18.1844 16.1102 18.0948 16.1102 17.9853V17.5871C16.1102 17.4776 16.1201 17.388 16.1398 17.3183C16.1595 17.2486 16.1891 17.1889 16.2186 17.1491C16.258 17.1092 16.2974 17.0794 16.3467 17.0595C16.3959 17.0395 16.4452 17.0296 16.4945 17.0296C16.6324 17.0296 16.7408 17.0296 16.8196 17.0395C16.8984 17.0495 16.9871 17.0495 17.0757 17.0595H17.0856C17.1151 17.0595 17.1348 17.0495 17.1545 17.0395C17.1742 17.0296 17.1841 17.0097 17.1841 16.9798V16.5517C17.1841 16.5119 17.1742 16.492 17.1644 16.482C17.1447 16.4721 17.125 16.4522 17.0856 16.4422C17.0166 16.4223 16.9378 16.4123 16.8294 16.3924C16.7211 16.3725 16.6028 16.3725 16.4551 16.3725C16.1201 16.3725 15.8541 16.4721 15.6472 16.6811C15.4502 16.8902 15.3418 17.1889 15.3418 17.5871V17.9853C15.3418 18.3736 15.4403 18.6822 15.6472 18.8913C15.8442 19.1004 16.1201 19.1999 16.4551 19.1999C16.593 19.1999 16.7211 19.19 16.8294 19.18C16.9378 19.1601 17.0166 19.1501 17.0856 19.1302C17.125 19.1203 17.1447 19.1103 17.1644 19.0904C17.1841 19.0804 17.1841 19.0506 17.1841 19.0207ZM14.859 19.0605V17.4676C14.859 17.3183 14.8492 17.1789 14.8196 17.0395C14.7999 16.9101 14.7507 16.7907 14.6916 16.6911C14.6324 16.5915 14.5438 16.5119 14.4354 16.4621C14.327 16.4024 14.1891 16.3725 14.0118 16.3725C13.864 16.3725 13.7261 16.3924 13.6078 16.4322C13.4896 16.4721 13.3714 16.5318 13.2335 16.6314V16.5119C13.2335 16.482 13.2236 16.4621 13.2039 16.4422C13.1842 16.4223 13.1645 16.4123 13.135 16.4123H12.6029C12.5734 16.4123 12.5537 16.4223 12.534 16.4422C12.5143 16.4621 12.5044 16.482 12.5044 16.5119V19.0605C12.5044 19.0904 12.5143 19.1103 12.534 19.1302C12.5537 19.1501 12.5734 19.1601 12.6029 19.1601H13.1744C13.2039 19.1601 13.2236 19.1501 13.2433 19.1302C13.263 19.1103 13.2729 19.0904 13.2729 19.0605V17.1789C13.3517 17.1391 13.4305 17.0993 13.5093 17.0694C13.5783 17.0395 13.6571 17.0296 13.7261 17.0296C13.795 17.0296 13.8541 17.0395 13.9034 17.0495C13.9527 17.0595 13.9822 17.0893 14.0118 17.1192C14.0413 17.159 14.0512 17.1988 14.061 17.2586C14.0709 17.3183 14.0709 17.388 14.0709 17.4676V19.0605C14.0709 19.0904 14.0807 19.1103 14.1004 19.1302C14.1201 19.1501 14.1399 19.1601 14.1694 19.1601H14.7408C14.7704 19.1601 14.7901 19.1501 14.8098 19.1302C14.8393 19.1103 14.859 19.0804 14.859 19.0605ZM11.1941 18.513C11.135 18.5428 11.0759 18.5628 11.0069 18.5827C10.938 18.6026 10.869 18.6125 10.8 18.6125C10.7015 18.6125 10.6227 18.6026 10.5735 18.5727C10.5242 18.5428 10.5045 18.4831 10.5045 18.3736V18.3338C10.5045 18.274 10.5143 18.2243 10.5242 18.1844C10.534 18.1446 10.5636 18.1048 10.5932 18.0749C10.6227 18.0451 10.672 18.0251 10.7212 18.0052C10.7705 17.9953 10.8395 17.9853 10.9281 17.9853H11.1941V18.513ZM11.9527 17.3482C11.9527 17.169 11.9232 17.0196 11.8739 16.9002C11.8246 16.7807 11.7458 16.6811 11.6572 16.6015C11.5586 16.5218 11.4503 16.4621 11.3123 16.4322C11.1744 16.3924 11.0168 16.3725 10.8493 16.3725C10.6917 16.3725 10.534 16.3825 10.3863 16.4024C10.2385 16.4223 10.1203 16.4422 10.0316 16.4721C9.97249 16.492 9.94293 16.5218 9.94293 16.5816V16.9699C9.94293 16.9997 9.95278 17.0196 9.96263 17.0395C9.98234 17.0495 10.002 17.0595 10.0217 17.0595H10.0414C10.0809 17.0595 10.1301 17.0495 10.1794 17.0495C10.2385 17.0495 10.2976 17.0395 10.3764 17.0395C10.4454 17.0395 10.5242 17.0296 10.603 17.0296C10.6818 17.0296 10.7606 17.0296 10.8296 17.0296C10.938 17.0296 11.0266 17.0495 11.0858 17.0893C11.1449 17.1291 11.1843 17.2187 11.1843 17.3581V17.5274H10.9281C10.5242 17.5274 10.2188 17.5871 10.0414 17.7165C9.86411 17.8459 9.76559 18.055 9.76559 18.3338V18.3736C9.76559 18.5329 9.7853 18.6623 9.83456 18.7619C9.88382 18.8714 9.94293 18.951 10.0217 19.0207C10.1006 19.0804 10.1794 19.1302 10.2779 19.1601C10.3764 19.19 10.4749 19.1999 10.5833 19.1999C10.7212 19.1999 10.8493 19.18 10.9478 19.1402C11.0463 19.1004 11.1449 19.0506 11.2434 18.9809V19.0605C11.2434 19.0904 11.2532 19.1103 11.2729 19.1302C11.2926 19.1501 11.3123 19.1601 11.3419 19.1601H11.8739C11.9035 19.1601 11.9232 19.1501 11.9429 19.1302C11.9626 19.1103 11.9724 19.0904 11.9724 19.0605V17.3482H11.9527ZM8.56366 18.1048C8.56366 18.2342 8.5144 18.3437 8.42573 18.4134C8.33707 18.4831 8.15973 18.5229 7.92328 18.5229H7.84447C7.80506 18.5229 7.76565 18.5229 7.72625 18.5229C7.68684 18.5229 7.64743 18.5229 7.60802 18.5229H7.52921V17.6269H8.06121C8.2484 17.6269 8.38632 17.6667 8.45529 17.7563C8.52425 17.8459 8.56366 17.9455 8.56366 18.055V18.1048ZM8.54396 16.6811C8.54396 16.7309 8.5341 16.7807 8.52425 16.8305C8.50455 16.8803 8.48484 16.9201 8.44544 16.9499C8.40603 16.9798 8.35677 17.0097 8.29766 17.0296C8.23855 17.0495 8.15973 17.0595 8.06121 17.0595H7.52921V16.2331C7.54891 16.2331 7.56861 16.2331 7.59817 16.2331C7.62773 16.2331 7.66713 16.2331 7.70654 16.2331H7.81491H7.89373C8.14003 16.2331 8.30751 16.263 8.40603 16.3227C8.50455 16.3825 8.55381 16.482 8.55381 16.6114V16.6811H8.54396ZM9.35181 18.055C9.35181 17.8858 9.31241 17.7464 9.23359 17.6269C9.15478 17.5075 9.05626 17.4079 8.92818 17.3482C9.05626 17.2884 9.15478 17.1889 9.22374 17.0694C9.2927 16.94 9.33211 16.8006 9.33211 16.6513V16.5617C9.33211 16.3725 9.2927 16.2132 9.22374 16.0838C9.15478 15.9544 9.0464 15.8548 8.91833 15.7752C8.79025 15.6955 8.63262 15.6458 8.44544 15.6059C8.25825 15.5761 8.06121 15.5562 7.83462 15.5562C7.7558 15.5562 7.67699 15.5562 7.59817 15.5562C7.51936 15.5562 7.44054 15.5661 7.36172 15.5661C7.28291 15.5661 7.21395 15.5761 7.14498 15.586C7.07602 15.596 7.02676 15.596 6.98735 15.6059C6.89868 15.6258 6.82972 15.6458 6.79031 15.6955C6.75091 15.7354 6.7312 15.815 6.7312 15.9245V18.8316C6.7312 18.9411 6.75091 19.0108 6.79031 19.0605C6.82972 19.1004 6.89868 19.1302 6.98735 19.1501C7.03661 19.1601 7.09572 19.17 7.15483 19.17C7.2238 19.18 7.29276 19.18 7.37158 19.19C7.45039 19.19 7.52921 19.1999 7.60802 19.1999C7.68684 19.1999 7.77551 19.1999 7.85432 19.1999C8.06121 19.1999 8.25825 19.18 8.43558 19.1501C8.61292 19.1203 8.7804 19.0605 8.90848 18.9809C9.0464 18.9012 9.14492 18.7917 9.23359 18.6524C9.31241 18.513 9.35181 18.3338 9.35181 18.1247V18.055Z" fill="#004E91"/>
</svg>
