<svg width="38" height="24" viewBox="0 0 38 24" fill="none" xmlns="http://www.w3.org/2000/svg">
<g clip-path="url(#clip0_2758_23809)">
<rect width="38" height="24" rx="2" fill="white"/>
<path d="M6.72947 9.22627C6.84714 9.48544 6.92227 9.80001 6.92227 10.262C6.92227 11.1059 6.35497 12.3436 5.89538 13.1312L5.40344 8.96711L3.37207 9.1699L4.30256 15.0217H6.62244C7.63823 13.6151 8.88959 11.612 8.88959 10.0699C8.88959 9.58647 8.7932 9.20382 8.57936 8.83215L6.72947 9.22603V9.22627ZM12.3239 8.85461C10.2068 8.85461 9.17992 10.7906 9.17992 12.6135C9.17992 14.0202 9.81126 15.1455 11.5752 15.1455C12.2705 15.1455 12.9869 14.9878 13.4465 14.7516L13.6923 12.9964C13.0399 13.3452 12.5378 13.4799 12.0137 13.4799C11.5322 13.4799 11.1692 13.2105 11.1692 12.5235C12.2601 12.5123 14.1415 12.04 14.1415 10.498C14.1415 9.54157 13.4898 8.85461 12.3242 8.85461H12.3239ZM11.212 11.4092C11.2656 10.7342 11.7569 10.2617 12.1311 10.2617C12.3452 10.2617 12.5267 10.3964 12.5267 10.6666C12.5267 11.2291 11.5856 11.409 11.2117 11.409L11.212 11.4092ZM18.645 8.85485C17.8863 8.85485 17.3513 9.15915 16.9451 9.44029L16.9234 8.95612H15.2018L14.2931 15.022H16.2821L16.9128 10.7684C17.0839 10.6781 17.3407 10.5543 17.5968 10.5543C17.7899 10.5543 17.9503 10.6217 17.9503 10.8918C17.9503 11.0043 17.9179 11.2071 17.9073 11.3079L17.3513 15.022H19.3293L19.9389 10.9704C19.9713 10.7571 20.0036 10.4306 20.0036 10.2056C20.0036 9.39491 19.6502 8.85461 18.645 8.85485ZM27.7145 8.85461C26.9771 8.85461 26.4421 9.09132 25.8755 9.51864C25.6718 9.13598 25.2659 8.85461 24.6456 8.85485C23.9292 8.85485 23.395 9.15915 22.9992 9.4625L22.9458 8.95612H21.2452L20.3365 15.022H22.3249L22.956 10.7684C23.127 10.6781 23.3834 10.5543 23.64 10.5543C23.8321 10.5543 23.9928 10.6217 23.9928 10.926C23.9928 11.0043 23.9715 11.1281 23.9611 11.2296L23.3945 15.022H25.3725L26.0031 10.7684C26.1855 10.6668 26.431 10.5543 26.6768 10.5543C26.8696 10.5543 27.0302 10.6217 27.0302 10.926C27.0302 11.0043 27.0083 11.1281 26.9979 11.2296L26.4313 15.022H28.4097L29.0186 10.9704C29.051 10.7571 29.0833 10.4306 29.0833 10.2056C29.0833 9.39491 28.7301 8.85461 27.7145 8.85461ZM32.7743 8.85461C30.5607 8.85461 29.5986 10.6446 29.5986 12.5574C29.5986 14.009 30.1546 15.1684 31.8332 15.1684C34.1001 15.1684 35.0518 13.2105 35.0518 11.3196C35.0518 9.8903 34.4422 8.85461 32.774 8.85461H32.7743ZM32.111 13.559C31.7585 13.559 31.6087 13.2102 31.6087 12.647C31.6087 11.9044 31.7689 10.4528 32.5496 10.4528C32.9021 10.4528 33.0198 10.7903 33.0198 11.2857C33.0198 12.0283 32.8487 13.5592 32.1108 13.5592L32.111 13.559Z" fill="#008CFF"/>
</g>
<rect x="0.5" y="0.5" width="37" height="23" rx="1.5" stroke="black" stroke-opacity="0.07"/>
<defs>
<clipPath id="clip0_2758_23809">
<rect width="38" height="24" rx="2" fill="white"/>
</clipPath>
</defs>
</svg>
