<svg width="39" height="24" viewBox="0 0 39 24" fill="none" xmlns="http://www.w3.org/2000/svg">
<rect x="0.199951" width="38" height="24" rx="2" fill="white"/>
<rect x="0.699951" y="0.5" width="37" height="23" rx="1.5" stroke="black" stroke-opacity="0.07"/>
<g clip-path="url(#clip0_2758_23819)">
<path d="M9.19995 4.30541V19.3046C9.19995 20.0226 9.78739 20.61 10.5054 20.61H19.467C26.2421 20.61 29.1793 16.8178 29.1793 11.7854C29.1793 6.77917 26.2421 3 19.467 3H10.5054C9.78739 3 9.19995 3.58744 9.19995 4.30541Z" fill="white"/>
<path d="M15.1984 6.68129V17.7642H20.0219C24.4015 17.7642 26.3009 15.2905 26.3009 11.792C26.3009 8.44359 24.4015 5.84583 20.0219 5.84583H16.0338C15.5704 5.84583 15.1984 6.22439 15.1984 6.68129Z" fill="#CC0066"/>
<path d="M19.467 19.4155H11.6737C10.9819 19.4155 10.4205 18.8542 10.4205 18.1623V5.45412C10.4205 4.76225 10.9819 4.20093 11.6737 4.20093H19.467C26.8622 4.20093 27.9653 8.95915 27.9653 11.7919C27.9653 16.7068 24.9432 19.4155 19.467 19.4155ZM11.6737 4.61866C11.2103 4.61866 10.8383 4.9907 10.8383 5.45412V18.1623C10.8383 18.6257 11.2103 18.9978 11.6737 18.9978H19.467C24.6756 18.9978 27.5475 16.4392 27.5475 11.7919C27.5475 5.55203 22.4825 4.61866 19.467 4.61866H11.6737Z" fill="black"/>
<path d="M16.8954 10.2973C17.0651 10.2973 17.2218 10.3234 17.3719 10.3756C17.522 10.4278 17.646 10.5127 17.757 10.6171C17.8614 10.7281 17.9463 10.8652 18.0115 11.0218C18.0703 11.185 18.1029 11.3743 18.1029 11.5962C18.1029 11.792 18.0768 11.9682 18.0311 12.1314C17.9789 12.2946 17.9071 12.4382 17.8092 12.5557C17.7113 12.6731 17.5873 12.7645 17.4372 12.8363C17.287 12.9016 17.1108 12.9408 16.9085 12.9408H15.7662V10.2908H16.8954V10.2973ZM16.8563 12.4578C16.9411 12.4578 17.0194 12.4447 17.1043 12.4186C17.1826 12.3925 17.2544 12.3468 17.3132 12.2815C17.3719 12.2163 17.4241 12.1379 17.4633 12.0335C17.5024 11.9291 17.522 11.8116 17.522 11.6615C17.522 11.5309 17.509 11.4069 17.4829 11.3025C17.4567 11.198 17.4111 11.1001 17.3523 11.0283C17.2936 10.9565 17.2152 10.8913 17.1173 10.8521C17.0194 10.8129 16.9019 10.7934 16.7584 10.7934H16.3406V12.4643H16.8563V12.4578Z" fill="white"/>
<path d="M20.4591 10.2973V10.7868H19.0624V11.3547H20.3482V11.805H19.0624V12.4512H20.4918V12.9408H18.4814V10.2908H20.4591V10.2973Z" fill="white"/>
<path d="M22.4565 10.2972L23.4486 12.9472H22.8416L22.6392 12.3598H21.6471L21.4383 12.9472H20.8508L21.8495 10.2972H22.4565ZM22.4891 11.9225L22.1562 10.9499H22.1497L21.8038 11.9225H22.4891Z" fill="white"/>
<path d="M24.395 10.2972V12.4577H25.6873V12.9472H23.8141V10.2972H24.395Z" fill="white"/>
<path d="M13.0183 12.8427C13.6924 12.8427 14.2388 12.2963 14.2388 11.6222C14.2388 10.9481 13.6924 10.4016 13.0183 10.4016C12.3442 10.4016 11.7977 10.9481 11.7977 11.6222C11.7977 12.2963 12.3442 12.8427 13.0183 12.8427Z" fill="black"/>
<path d="M13.9386 17.7642C12.9138 17.7642 12.0914 16.9353 12.0914 15.9171V14.4746C12.0914 13.9655 12.5026 13.5477 13.0183 13.5477C13.5274 13.5477 13.9451 13.9589 13.9451 14.4746V17.7642H13.9386Z" fill="black"/>
</g>
<defs>
<clipPath id="clip0_2758_23819">
<rect width="19.9793" height="17.61" fill="white" transform="translate(9.19995 3)"/>
</clipPath>
</defs>
</svg>
