<svg width="58" height="58" viewBox="0 0 58 58" fill="none" xmlns="http://www.w3.org/2000/svg">
<rect y="0.000732422" width="58" height="58" rx="3" fill="white"/>
<rect x="0.5" y="0.500732" width="57" height="57" rx="2.5" stroke="black" stroke-opacity="0.07"/>
<path d="M44.3201 29.4307H40.9228C40.5449 29.4307 40.2375 29.1296 40.2375 28.7527C40.2375 28.3758 40.5449 28.044 40.9228 28.044H46.0949V25.4927H40.9228C39.1176 25.4927 37.6488 26.9644 37.6488 28.7651C37.6488 30.5658 39.1176 32.0375 40.9228 32.0375H44.2739C44.6518 32.0375 44.9592 32.3373 44.9592 32.7142C44.9592 33.0911 44.6517 33.3686 44.2739 33.3686H37.0878C36.4777 34.5334 35.8845 35.5317 34.6802 36.0309H44.3201C46.0949 36.0054 47.5468 34.5033 47.5468 32.7185C47.5468 30.9339 46.0949 29.4562 44.3201 29.4307Z" fill="#71706F"/>
<path d="M31.2969 25.4927C28.4175 25.4927 26.0723 27.8519 26.0723 30.7507V30.8616V41.6883H28.6791V36.0309H31.2914C34.1709 36.0309 36.5078 33.6404 36.5078 30.7415C36.5077 27.8427 34.1763 25.4927 31.2969 25.4927ZM31.2969 33.3686H28.6791V30.7415C28.6791 29.2735 29.8479 28.0791 31.2969 28.0791C32.7459 28.0791 33.9246 29.2735 33.9246 30.7415C33.9246 32.2096 32.7459 33.3686 31.2969 33.3686Z" fill="#71706F"/>
<path d="M17.8193 36.0308C15.3545 36.0308 13.2822 34.2744 12.7215 31.9798C12.7215 31.9798 12.5595 31.2212 12.5595 30.7216C12.5595 30.2221 12.7128 29.4556 12.7128 29.4556C13.2776 27.1667 15.3473 25.4623 17.8081 25.4623C20.7023 25.4623 23.0772 27.815 23.0772 30.7091V31.9819H15.3879C15.842 32.8693 16.7603 33.3685 17.8193 33.3685H24.7316L24.7411 25.8631C24.7411 24.7441 23.8257 23.8286 22.7067 23.8286H12.9095C11.7906 23.8286 10.875 24.7164 10.875 25.8354V35.6325C10.875 36.7515 11.7906 37.6947 12.9095 37.6947H22.7067C23.7109 37.6947 24.5485 36.9737 24.7104 36.0308H17.8193Z" fill="#C8036F"/>
<path d="M17.8079 27.9526C16.753 27.9526 15.8356 28.5985 15.3796 29.4304H20.2363C19.7804 28.5985 18.863 27.9526 17.8079 27.9526Z" fill="#C8036F"/>
<path d="M22.2452 20.6427C22.2452 18.2516 20.2581 16.3132 17.8068 16.3132C15.3961 16.3132 13.4355 18.1882 13.3711 20.5245C13.3701 20.5344 13.3709 20.544 13.3709 20.5542V21.8552C13.3709 22.0109 13.4977 22.1647 13.6572 22.1647H15.2901C15.4496 22.1647 15.5895 22.0109 15.5895 21.8552V20.6427C15.5895 19.4487 16.584 18.4772 17.8081 18.4772C19.0322 18.4772 20.0267 19.4487 20.0267 20.6427V21.8552C20.0267 22.0109 20.1561 22.1647 20.3156 22.1647H21.9486C22.1081 22.1647 22.2452 22.0109 22.2452 21.8552V20.6427Z" fill="#C8036F"/>
</svg>
