<svg width="39" height="24" viewBox="0 0 39 24" fill="none" xmlns="http://www.w3.org/2000/svg">
<rect x="0.900024" y="0.5" width="37.4" height="23" rx="1.5" fill="white"/>
<rect x="0.900024" y="0.5" width="37.4" height="23" rx="1.5" stroke="#DDDDDD"/>
<path fill-rule="evenodd" clip-rule="evenodd" d="M11.1536 8.39239C10.8487 8.75719 10.3609 9.04491 9.87302 9.00381C9.81203 8.51056 10.0509 7.98649 10.3304 7.6628C10.6353 7.28773 11.1689 7.02055 11.6008 7C11.6516 7.5138 11.4534 8.01732 11.1536 8.39239ZM11.5957 9.10142C11.1659 9.07641 10.7738 9.2321 10.457 9.35786C10.2531 9.43879 10.0805 9.50732 9.94921 9.50732C9.80183 9.50732 9.62209 9.43513 9.42028 9.35407C9.15584 9.24785 8.85351 9.12642 8.53647 9.13225C7.80978 9.14253 7.1339 9.5587 6.76293 10.2215C6.00067 11.5471 6.56474 13.5098 7.3016 14.5888C7.66241 15.1231 8.09436 15.7089 8.66352 15.6883C8.91391 15.6788 9.09403 15.6015 9.28044 15.5215C9.49505 15.4294 9.71798 15.3338 10.0661 15.3338C10.4021 15.3338 10.6153 15.4269 10.82 15.5164C11.0145 15.6014 11.2014 15.683 11.4788 15.678C12.0683 15.6678 12.4393 15.1437 12.8001 14.6093C13.1895 14.0358 13.3606 13.4761 13.3865 13.3912L13.3896 13.3814C13.3889 13.3807 13.3841 13.3785 13.3757 13.3746C13.2455 13.3143 12.2506 12.8538 12.2411 11.619C12.2315 10.5826 13.0302 10.0575 13.1559 9.97479C13.1636 9.96976 13.1687 9.96637 13.1711 9.9646C12.6629 9.20418 11.8701 9.12197 11.5957 9.10142ZM15.6764 15.6215V7.61139H18.6493C20.184 7.61139 21.2562 8.68009 21.2562 10.242C21.2562 11.804 20.1636 12.883 18.6086 12.883H16.9062V15.6215H15.6764ZM16.9061 8.65955H18.3239C19.3911 8.65955 20.0009 9.235 20.0009 10.2472C20.0009 11.2594 19.3911 11.84 18.3188 11.84H16.9061V8.65955ZM25.3163 14.6607C24.9911 15.2875 24.2746 15.6831 23.5021 15.6831C22.3587 15.6831 21.5609 14.9946 21.5609 13.9568C21.5609 12.9292 22.3333 12.3383 23.7613 12.251L25.296 12.1585V11.7166C25.296 11.0641 24.8742 10.7096 24.1221 10.7096C23.5021 10.7096 23.0499 11.0333 22.9584 11.5265H21.8506C21.8861 10.4886 22.8517 9.73336 24.1577 9.73336C25.5653 9.73336 26.4801 10.4784 26.4801 11.6344V15.6215H25.3417V14.6607H25.3163ZM23.8326 14.7327C23.177 14.7327 22.7603 14.4141 22.7603 13.926C22.7603 13.4225 23.1618 13.1296 23.9291 13.0834L25.2961 12.996V13.4482C25.2961 14.1983 24.666 14.7327 23.8326 14.7327ZM30.2559 15.9349C29.763 17.3376 29.1989 17.8 27.9996 17.8C27.9081 17.8 27.6032 17.7897 27.5321 17.7691V16.8083C27.6083 16.8186 27.7963 16.8289 27.8929 16.8289C28.4366 16.8289 28.7415 16.5977 28.9296 15.9965L29.0414 15.642L26.9578 9.81042H28.2435L29.6918 14.5425H29.7172L31.1655 9.81042H32.4157L30.2559 15.9349Z" fill="black"/>
</svg>
