<svg width="56" height="67" viewBox="0 0 56 67" fill="none" xmlns="http://www.w3.org/2000/svg">
<g clip-path="url(#clip0_2758_23772)">
<path d="M47.7556 15.4102C47.7556 23.7014 40.0388 33.5006 28.3783 33.5006H17.1472L16.6021 36.9539L13.9751 53.6005H0L8.40249 0H31.0377C38.6549 0 44.6556 4.22154 46.8546 10.0882C47.4768 11.7494 47.7941 13.5428 47.7568 15.4102H47.7556Z" fill="#002991"/>
<path d="M55.8146 30.8205C54.2715 40.117 46.2125 46.9002 36.695 46.9002H28.8923L25.6344 67H11.7451L13.9739 53.6005L16.6009 36.954L17.146 33.5007H28.3771C40.0376 33.5007 47.7544 23.7014 47.7544 15.4103C47.7568 15.4103 47.7593 15.4127 47.7618 15.414C53.5012 18.3473 56.8413 24.2906 55.8134 30.8205H55.8146Z" fill="#60CDFF"/>
<path d="M47.7556 15.4103C47.7556 15.4103 47.7606 15.4128 47.7631 15.414C47.7606 15.272 47.7593 15.2633 47.7556 15.4103Z" fill="black"/>
<path d="M47.7556 15.4103C45.355 14.1542 42.4393 13.4008 39.2672 13.4008H20.3193L17.1472 33.5006H28.3783C40.0388 33.5006 47.7556 23.7014 47.7556 15.4103Z" fill="#008CFF"/>
</g>
<defs>
<clipPath id="clip0_2758_23772">
<rect width="56" height="67" fill="white"/>
</clipPath>
</defs>
</svg>
