<svg width="133px" height="84px" xmlns="http://www.w3.org/2000/svg" viewBox="2.745 2.516 27 18">
	<defs>
		<clipPath id="a">
			<rect width="27" height="18" fill="#fff" rx="2" />
		</clipPath>
		<clipPath id="d">
			<path fill="#fff" d="M7.085 4.078h12.83v9.844H7.086z" />
		</clipPath>
		<radialGradient id="c" cx="0" cy="0" r="1" gradientTransform="rotate(87.248 2.062 10.987)scale(11.7135 17.5748)" gradientUnits="userSpaceOnUse">
			<stop stop-color="#fff" />
			<stop offset="1" stop-color="#E9E9E9" />
		</radialGradient>
		<linearGradient id="b" x1="0" x2="27.435" y1=".417" y2="16.595" gradientUnits="userSpaceOnUse">
			<stop offset=".273" stop-color="#fff" />
			<stop offset=".778" stop-color="#F0F0F0" />
			<stop offset="1" stop-color="#DFDFDF" />
		</linearGradient>
	</defs>
	<g clip-path="url(#a)" transform="translate(2.745 2.516)">
		<path fill="#fff" d="M0 0h27v18H0z" />
		<path fill="url(#b)" d="M0 0h27v18H0z" />
		<path fill="url(#c)" d="M0 0h27v18H0z" />
		<g clip-path="url(#d)">
			<path fill="#231F20" d="M19.663 13.788v.026h.023l.013-.004.004-.004.001-.005-.001-.005-.004-.005-.013-.003zm.024-.018q.016 0 .028.009a.03.03 0 0 1 .01.022.03.03 0 0 1-.008.02.04.04 0 0 1-.023.01l.033.035h-.025l-.03-.035h-.01v.035h-.02v-.095zm-.007.13a.08.08 0 0 0 .057-.024.08.08 0 0 0 0-.113.1.1 0 0 0-.025-.018.086.086 0 0 0-.064 0 .1.1 0 0 0-.026.018.081.081 0 0 0 0 .114.08.08 0 0 0 .058.023m0-.184a.11.11 0 0 1 .098.064.1.1 0 0 1-.022.113.106.106 0 0 1-.075.03.1.1 0 0 1-.077-.03.11.11 0 0 1-.022-.114.1.1 0 0 1 .022-.033.108.108 0 0 1 .076-.03m-9.823-.37c0-.182.121-.332.32-.332.189 0 .316.144.316.333s-.127.332-.317.332c-.198 0-.32-.15-.32-.332m.852 0v-.519h-.229v.127a.4.4 0 0 0-.332-.152.524.524 0 0 0-.527.545c0 .317.232.545.527.545.15 0 .26-.058.332-.152v.126h.23zm7.737 0c0-.182.121-.332.32-.332.189 0 .317.144.317.333s-.128.332-.318.332c-.198 0-.32-.15-.32-.332m.853 0v-.935h-.23v.543a.4.4 0 0 0-.332-.152.524.524 0 0 0-.527.545c0 .317.232.545.527.545.15 0 .26-.058.333-.152v.126h.229zm-5.748-.342c.148 0 .242.09.267.252h-.547c.025-.15.117-.252.28-.252m.005-.203c-.309 0-.525.222-.525.546 0 .33.225.545.54.545.159 0 .304-.04.432-.146l-.113-.167a.5.5 0 0 1-.306.109c-.147 0-.282-.068-.315-.255h.782q.004-.041.005-.087c-.003-.323-.206-.545-.5-.545m2.764.545c0-.182.121-.332.32-.332.189 0 .317.144.317.332 0 .19-.128.333-.317.333-.199 0-.32-.15-.32-.333m.852 0v-.519h-.228v.127a.4.4 0 0 0-.333-.152.524.524 0 0 0-.527.545c0 .317.232.545.527.545.15 0 .26-.058.333-.152v.126h.229zm-2.145 0c0 .315.222.546.562.546a.56.56 0 0 0 .378-.124l-.11-.183a.47.47 0 0 1-.275.094c-.183-.002-.318-.133-.318-.333s.135-.33.318-.332q.148.001.275.094l.11-.183a.56.56 0 0 0-.378-.124c-.34 0-.562.23-.562.545m2.952-.545a.31.31 0 0 0-.278.152v-.126h-.227v1.039h.23v-.582c0-.172.074-.268.224-.268q.075 0 .143.027l.07-.213a.5.5 0 0 0-.162-.029m-6.138.109a.8.8 0 0 0-.429-.109c-.267 0-.439.126-.439.333 0 .169.128.274.364.306l.108.015c.125.018.185.05.185.109 0 .08-.084.126-.24.126a.57.57 0 0 1-.35-.109l-.108.176a.77.77 0 0 0 .456.135c.304 0 .48-.141.48-.339 0-.182-.139-.278-.368-.31l-.108-.016c-.099-.012-.178-.032-.178-.102 0-.076.075-.121.2-.121.135 0 .265.05.329.089zm2.955-.108a.31.31 0 0 0-.278.152v-.127h-.227v1.039h.23v-.582c0-.172.074-.268.224-.268q.075 0 .143.027l.07-.213a.5.5 0 0 0-.162-.029m-1.954.025h-.375v-.315h-.231v.315h-.214v.207h.214v.473c0 .241.095.385.366.385.1 0 .213-.03.286-.08l-.066-.194a.4.4 0 0 1-.203.059c-.114 0-.152-.07-.152-.174v-.469h.375zm-3.423 1.039v-.652c0-.245-.159-.41-.415-.412a.41.41 0 0 0-.37.184.39.39 0 0 0-.348-.184.35.35 0 0 0-.308.154v-.129h-.23v1.039h.232v-.576c0-.18.101-.276.258-.276.152 0 .229.098.229.274v.578h.231v-.576c0-.18.106-.276.258-.276.156 0 .23.098.23.274v.578z" />
			<path fill="#F79410" d="M19.793 10.412v-.152h-.04l-.046.104-.047-.104h-.04v.152h.029v-.114l.043.098h.03l.043-.099v.115zm-.254 0v-.126h.051v-.025h-.131v.025h.051v.126z" />
			<path fill="#FF5F00" d="M15.236 11.063h-3.47V4.914h3.47z" />
			<path fill="#EB001B" d="M11.986 7.988c0-1.247.592-2.358 1.515-3.074a4 4 0 0 0-2.451-.836c-2.19 0-3.965 1.75-3.965 3.91S8.86 11.9 11.05 11.9a4 4 0 0 0 2.45-.836 3.89 3.89 0 0 1-1.514-3.075" />
			<path fill="#F79E1B" d="M19.917 7.989c0 2.16-1.775 3.91-3.965 3.91a4 4 0 0 1-2.451-.835 3.88 3.88 0 0 0 1.515-3.075A3.88 3.88 0 0 0 13.5 4.914a4 4 0 0 1 2.45-.836c2.19 0 3.966 1.751 3.966 3.91" />
		</g>
	</g>
</svg>
