<svg width="133px" height="84px" xmlns="http://www.w3.org/2000/svg" viewBox="0 0 27 18">
	<defs>
		<clipPath id="a">
			<rect width="27" height="18" fill="#fff" rx="2" />
		</clipPath>
	</defs>
	<g clip-path="url(#a)">
		<path fill="#001C64" d="M0 0h27v18H0z" />
		<path fill="#fff" fill-rule="evenodd" d="M13.597 7.56c-.01.844.75 1.314 1.322 1.594.587.287.784.471.782.728-.004.393-.469.566-.903.573-.759.012-1.2-.206-1.55-.37l-.273 1.283c.352.162 1.003.304 1.678.311 1.586 0 2.622-.786 2.627-2.004.007-1.545-2.129-1.63-2.114-2.32.005-.21.204-.434.64-.49.216-.029.813-.05 1.488.261l.265-1.241a4 4 0 0 0-1.412-.26c-1.491 0-2.541.796-2.55 1.935m6.512-1.828a.69.69 0 0 0-.642.43l-2.265 5.425h1.585l.315-.874h1.936l.182.874h1.396l-1.219-5.855zm.221 1.582.458 2.199h-1.252zm-8.653-1.582-1.249 5.855h1.51l1.248-5.855zm-2.233 0L7.873 9.717 7.237 6.33c-.074-.378-.369-.597-.696-.597H3.973l-.035.17c.527.115 1.126.3 1.489.498.222.121.285.227.358.514l1.203 4.673h1.596l2.445-5.855z" clip-rule="evenodd" />
	</g>
</svg>
