<?xml version="1.0" encoding="UTF-8" standalone="no"?>
<!-- Created with Inkscape (http://www.inkscape.org/) -->
<svg xmlns:dc="http://purl.org/dc/elements/1.1/" xmlns:cc="http://creativecommons.org/ns#" xmlns:rdf="http://www.w3.org/1999/02/22-rdf-syntax-ns#" xmlns:svg="http://www.w3.org/2000/svg" xmlns="http://www.w3.org/2000/svg" xmlns:sodipodi="http://sodipodi.sourceforge.net/DTD/sodipodi-0.dtd" xmlns:inkscape="http://www.inkscape.org/namespaces/inkscape" id="svg3052" version="1.1" inkscape:version="0.48.5 r10040" width="3072" height="1919" sodipodi:docname="NoVictor_(Visa).png">
  <metadata id="metadata3058">
    <rdf:RDF>
      <cc:Work rdf:about="">
        <dc:format>image/svg+xml</dc:format>
        <dc:type rdf:resource="http://purl.org/dc/dcmitype/StillImage"/>
        <dc:title/>
      </cc:Work>
    </rdf:RDF>
  </metadata>
  <defs id="defs3056"/>
  <sodipodi:namedview pagecolor="#ffffff" bordercolor="#666666" borderopacity="1" objecttolerance="10" gridtolerance="10" guidetolerance="10" inkscape:pageopacity="0" inkscape:pageshadow="2" inkscape:window-width="1366" inkscape:window-height="706" id="namedview3054" showgrid="false" inkscape:zoom="0.14039817" inkscape:cx="2929.9452" inkscape:cy="708.7338" inkscape:window-x="-8" inkscape:window-y="-8" inkscape:window-maximized="1" inkscape:current-layer="svg3052"/>
  <g id="g3177">
    <path inkscape:connector-curvature="0" id="rect3062" d="m 17.981418,14.57961 3037.559182,0 0,1890.69839 -3037.559182,0 z" style="fill:white;fill-opacity:1;fill-rule:evenodd;stroke:#0061b2;stroke-width:31.99999808999999800;stroke-opacity:1"/>
    <path style="fill:#0061b2;fill-opacity:1;fill-rule:evenodd;stroke:none" d="m 120.56877,132.88731 2813.55253,0 0,397.72016 -2813.55253,0 z" id="path3065" inkscape:connector-curvature="0"/>
    <path inkscape:connector-curvature="0" id="path3069" d="m 120.56877,1389.7364 2813.55253,0 0,397.7202 -2813.55253,0 z" style="fill:#fdb827;fill-opacity:1;fill-rule:evenodd;stroke:none"/>
    <path sodipodi:nodetypes="ccccccccccccc" inkscape:connector-curvature="0" id="path3071" d="m 588.28125,631.78125 0.0312,0.1875 -115.65625,0 0,19.59375 0,0.0625 c 90.26259,2.8715 117.21199,45.34099 127.1875,94.78125 l 53.21875,527.74995 175.125,0 374.1563,-642.37495 -175.125,0 -224.87505,386.09375 -38.9375,-386.09375 z" style="fill:#0061b2;fill-opacity:1;fill-rule:evenodd;stroke:none"/>
    <path sodipodi:nodetypes="ccccc" inkscape:connector-curvature="0" id="rect3086" d="m 1295.6167,631.40088 169.9694,0 -208.4532,642.99782 -169.9694,0 z" style="fill:#0061b2;fill-opacity:1;fill-rule:evenodd;stroke:none"/>
    <path sodipodi:nodetypes="ccccccccccccc" inkscape:connector-curvature="0" id="path3089" d="m 2232.0625,644.21875 -328.7187,630.18745 184.4062,0 47.9688,-96.2187 214.0624,0 7.3438,96.2187 169.9688,0 L 2479,644.21875 c -82.3125,0 -164.625,0 -246.9375,0 z m 89.3125,161.71875 20.3438,266.4375 -153.2188,0 z" style="fill:#0061b2;fill-opacity:1;fill-rule:evenodd;stroke:none"/>
    <path sodipodi:nodetypes="ssccssssccsss" inkscape:connector-curvature="0" id="path3105" d="m 1507.2767,794.95644 c 25.5058,-101.9596 109.2293,-171.57299 251.7473,-171.57299 133.5021,0 232.5054,83.38126 232.5054,83.38126 l -101.0196,105.83007 c 0,0 -74.6732,-57.72549 -118.658,-57.72549 -58.1586,0 -84.422,21.23645 -89.7952,56.122 -10.7138,69.55953 237.1425,112.13143 229.2985,274.19611 -5.2383,108.2296 -117.2546,213.2636 -245.3333,213.2636 -192.0571,0 -287.024,-76.9673 -287.024,-76.9673 l 86.5882,-123.4684 c 0,0 86.7945,69.524 168.3661,65.7429 55.0339,-2.551 97.451,-23.6415 94.6056,-60.9325 -6.4494,-84.5247 -267.4465,-123.32269 -221.281,-307.86926 z" style="fill:#0061b2;stroke:none;fill-opacity:1"/>
    <path inkscape:connector-curvature="0" id="path3151" d="m 2547.2051,644.19819 c -5.9321,7e-5 -11.7445,1.52282 -17.3956,4.56872 -5.651,3.04604 -10.044,7.42901 -13.213,13.09914 -3.1689,5.67025 -4.7528,11.57737 -4.7527,17.73176 -1e-4,6.09198 1.5673,11.94871 4.6895,17.57202 3.122,5.62334 7.482,9.99069 13.0861,13.09914 5.6042,3.10845 11.4662,4.66457 17.5857,4.66457 6.1192,0 11.9813,-1.55612 17.5855,-4.66457 5.6042,-3.10845 9.948,-7.4758 13.0546,-13.09914 3.1064,-5.62331 4.6577,-11.48004 4.6577,-17.57202 0,-6.15439 -1.5678,-12.06151 -4.7211,-17.73176 -3.1534,-5.67013 -7.562,-10.0531 -13.2129,-13.09914 -5.6511,-3.0459 -11.4319,-4.56865 -17.3638,-4.56872 z m 0,5.87863 c 4.9328,7e-5 9.7343,1.25589 14.4487,3.80195 4.7142,2.54618 8.3884,6.19368 11.0266,10.9266 2.6381,4.73302 3.9606,9.669 3.9607,14.79244 -10e-5,5.09228 -1.2743,9.96223 -3.8657,14.6327 -2.5914,4.67051 -6.2484,8.31801 -10.9316,10.9266 -4.6832,2.60862 -9.5497,3.8978 -14.6387,3.8978 -5.0891,0 -9.9875,-1.28918 -14.6706,-3.8978 -4.6832,-2.60859 -8.3247,-6.25609 -10.9315,-10.9266 -2.6071,-4.67047 -3.8974,-9.54042 -3.8974,-14.6327 0,-5.12344 1.3068,-10.05942 3.9606,-14.79244 2.6538,-4.73292 6.328,-8.38042 11.0267,-10.9266 4.6988,-2.54606 9.5479,-3.80188 14.5122,-3.80195 z" style="font-size:60px;font-style:normal;font-weight:normal;text-align:start;text-anchor:start;fill:#0061b2;fill-opacity:1;font-family:Arial"/>
    <path inkscape:connector-curvature="0" id="path3147" d="m 2532.5723,660.11513 0,41.68888 6.1748,0 0,-17.71165 3.6283,0 c 2.164,3e-5 3.8045,0.47681 4.9335,1.43513 1.6307,1.30067 3.7954,4.56264 6.4612,9.73091 l 3.3737,6.54561 7.5115,0 -4.6468,-8.15576 c -2.2268,-3.86764 -4.097,-6.61784 -5.6337,-8.26077 -0.8154,-0.85565 -1.898,-1.58908 -3.2465,-2.2052 3.2929,-0.27379 5.9337,-1.55633 7.9252,-3.81536 1.9915,-2.25895 2.9919,-4.89948 2.992,-7.94574 -1e-4,-2.15627 -0.6226,-4.1738 -1.8143,-6.09057 -1.1917,-1.91667 -2.7671,-3.2902 -4.7742,-4.06038 -2.0072,-0.77004 -5.2548,-1.15505 -9.7395,-1.1551 l -13.1452,0 z m 6.1748,5.67052 7.0023,0 c 3.0106,6e-5 5.0931,0.22094 6.2064,0.70007 1.1134,0.47922 1.9827,1.22979 2.61,2.2052 0.6272,0.97552 0.923,2.05819 0.923,3.29031 0,1.91677 -0.6401,3.45675 -1.9415,4.62043 -1.3016,1.16377 -3.7454,1.75021 -7.3206,1.75016 l -7.4796,0 0,-12.56617 z" style="font-size:60px;font-style:normal;font-weight:normal;text-align:start;text-anchor:start;fill:#0061b2;fill-opacity:1;font-family:Arial"/>
    <path style="font-size:60px;font-style:normal;font-weight:normal;text-align:start;text-anchor:start;fill:#0061b2;fill-opacity:1;font-family:Arial" d="m 2873.1269,1692.3949 c -5.9321,10e-5 -11.7445,1.5229 -17.3956,4.5688 -5.651,3.046 -10.044,7.429 -13.213,13.0991 -3.1689,5.6702 -4.7528,11.5774 -4.7527,17.7318 -1e-4,6.0919 1.5673,11.9487 4.6895,17.572 3.122,5.6233 7.482,9.9907 13.0861,13.0991 5.6042,3.1085 11.4662,4.6646 17.5857,4.6646 6.1192,0 11.9813,-1.5561 17.5855,-4.6646 5.6042,-3.1084 9.948,-7.4758 13.0546,-13.0991 3.1064,-5.6233 4.6577,-11.4801 4.6577,-17.572 0,-6.1544 -1.5678,-12.0616 -4.7211,-17.7318 -3.1534,-5.6701 -7.562,-10.0531 -13.2129,-13.0991 -5.6511,-3.0459 -11.4319,-4.5687 -17.3638,-4.5688 z m 0,5.8787 c 4.9328,0 9.7343,1.2559 14.4487,3.8019 4.7142,2.5462 8.3884,6.1937 11.0266,10.9266 2.6381,4.733 3.9606,9.669 3.9607,14.7925 -10e-5,5.0922 -1.2743,9.9622 -3.8657,14.6327 -2.5914,4.6705 -6.2484,8.318 -10.9316,10.9266 -4.6832,2.6086 -9.5497,3.8978 -14.6387,3.8978 -5.0891,0 -9.9875,-1.2892 -14.6706,-3.8978 -4.6832,-2.6086 -8.3247,-6.2561 -10.9315,-10.9266 -2.6071,-4.6705 -3.8974,-9.5405 -3.8974,-14.6327 0,-5.1235 1.3068,-10.0595 3.9606,-14.7925 2.6538,-4.7329 6.328,-8.3804 11.0267,-10.9266 4.6988,-2.546 9.5479,-3.8019 14.5122,-3.8019 z" id="path3159" inkscape:connector-curvature="0"/>
    <path style="font-size:60px;font-style:normal;font-weight:normal;text-align:start;text-anchor:start;fill:#0061b2;fill-opacity:1;font-family:Arial" d="m 2858.4941,1708.3119 0,41.6889 6.1748,0 0,-17.7117 3.6283,0 c 2.164,0 3.8045,0.4768 4.9335,1.4351 1.6307,1.3007 3.7954,4.5627 6.4612,9.731 l 3.3737,6.5456 7.5115,0 -4.6468,-8.1558 c -2.2268,-3.8676 -4.097,-6.6178 -5.6337,-8.2608 -0.8154,-0.8556 -1.898,-1.5891 -3.2465,-2.2052 3.2929,-0.2738 5.9337,-1.5563 7.9252,-3.8153 1.9915,-2.259 2.9919,-4.8995 2.992,-7.9458 -10e-5,-2.1562 -0.6226,-4.1738 -1.8143,-6.0905 -1.1917,-1.9167 -2.7671,-3.2902 -4.7742,-4.0604 -2.0072,-0.7701 -5.2548,-1.1551 -9.7395,-1.1551 l -13.1452,0 z m 6.1748,5.6705 7.0023,0 c 3.0106,10e-5 5.0931,0.2209 6.2064,0.7001 1.1134,0.4792 1.9827,1.2298 2.61,2.2052 0.6272,0.9755 0.923,2.0582 0.923,3.2903 0,1.9167 -0.6401,3.4567 -1.9415,4.6204 -1.3016,1.1638 -3.7454,1.7502 -7.3206,1.7502 l -7.4796,0 0,-12.5662 z" id="path3161" inkscape:connector-curvature="0"/>
  </g>
</svg>