<?xml version="1.0" encoding="UTF-8"?>
<svg width="134px" height="85px" viewBox="0 0 134 85" version="1.1" xmlns="http://www.w3.org/2000/svg" xmlns:xlink="http://www.w3.org/1999/xlink">
    <title>AmEx Card Icon</title>
    <g id="RD-4" stroke="none" stroke-width="1" fill="none" fill-rule="evenodd">
        <g id="LP---venmo---social---primary" transform="translate(-824.000000, -1587.000000)">
            <g id="AmEx-Card-Icon" transform="translate(824.988647, 1587.578995)">
                <rect id="Rectangle" fill="#216EA9" x="0" y="0" width="132.39159" height="83.7921454" rx="4.581738"></rect>
                <g id="Amex" transform="translate(11.042625, 26.813487)" fill-rule="nonzero">
                    <polygon id="path3082" fill="#FFFFFF" points="58.1781633 28.829246 58.1781633 0.111970975 88.752584 0.111970975 92.0328881 4.36473322 95.4216632 0.111970975 111.627357 0.111970975 100.111543 14.3998649 111.627357 28.829246 95.1623158 28.829246 91.8866983 24.4852763 88.560787 28.829246"></polygon>
                    <polygon id="path3080" fill="#FFFFFF" points="12.9456251 0.111970975 24.8692065 0.111970975 28.7820013 9.06638213 28.7820013 0.111970975 43.6041122 0.111970975 45.933401 6.58395398 48.1915676 0.111970975 83.0100213 0.111970975 83.0100213 28.829228 23.1027999 28.829228 21.2713726 24.3023659 16.3877429 24.3023659 14.5692593 28.829228 0.216820214 28.829228"></polygon>
                    <path d="M15.3859151,3.6521988 L6.08653439,25.1547742 L12.140911,25.1547742 L13.8567623,20.8489817 L23.8318149,20.8489817 L25.5387763,25.1547742 L31.7265095,25.1547742 L22.436018,3.6521988 L15.3859151,3.6521988 Z M18.8265072,8.6564979 L21.8670326,16.1806509 L15.7770926,16.1806509 L18.8265072,8.6564979 L18.8265072,8.6564979 Z" id="path3046" fill="#216EA9"></path>
                    <polygon id="path3048" fill="#216EA9" points="32.3666185 25.1511618 32.3666185 3.64856809 40.9702248 3.68034593 45.9743744 17.543851 50.8586955 3.64856809 59.3934994 3.64856809 59.3934994 25.1511618 53.9881232 25.1511618 53.9881232 9.30714548 48.2583106 25.1511618 43.5177841 25.1511618 37.7719947 9.30714548 37.7719947 25.1511618"></polygon>
                    <polygon id="path3050" fill="#216EA9" points="63.091914 25.1511618 63.091914 3.64856809 80.7305103 3.64856809 80.7305103 8.45836792 68.5541888 8.45836792 68.5541888 12.1364341 80.4460167 12.1364341 80.4460167 16.6632958 68.5541888 16.6632958 68.5541888 20.482831 80.7305103 20.482831 80.7305103 25.1511618"></polygon>
                    <polygon id="path3066" fill="#216EA9" points="80.1997365 25.1511618 88.7878839 14.5324773 79.9952578 3.64856809 86.80532 3.64856809 92.0417773 10.3769555 97.2960166 3.64856809 103.839367 3.64856809 95.1623158 14.3998648 103.766272 25.1511618 96.9572869 25.1511618 91.8728606 18.5288349 86.9120057 25.1511618"></polygon>
                </g>
            </g>
        </g>
    </g>
</svg>