<?xml version="1.0" encoding="UTF-8"?>
<svg width="88px" height="55px" viewBox="0 0 88 55" version="1.1" xmlns="http://www.w3.org/2000/svg" xmlns:xlink="http://www.w3.org/1999/xlink">
    <title>iDEAL_acceptancemark_80x50</title>
    <g id="RD-4" stroke="none" stroke-width="1" fill="none" fill-rule="evenodd">
        <g id="LP---venmo---social---primary" transform="translate(-1290.000000, -1489.000000)">
            <g id="iDEAL_acceptancemark_80x50" transform="translate(1290.674250, 1489.000000)">
                <rect id="Rectangle" fill="#000000" x="0" y="0" width="86.55975" height="54.78165" rx="3.55725"></rect>
                <g id="iDeal" transform="translate(19.722475, 8.569431)" fill-rule="nonzero">
                    <g id="Group-10">
                        <path d="M1.31483165,0.4147596 L1.31483165,38.542788 L23.6150559,38.542788 C38.3257411,38.542788 44.7042759,30.3306152 44.7042759,19.4407953 C44.7042759,8.59428425 38.3257411,0.4147596 23.6150559,0.4147596 L1.31483165,0.4147596 Z" id="Fill-6" fill="#FFFFFF"></path>
                        <path d="M24.4089797,0.0145181949 C43.6643857,0.0145181949 46.5394168,12.2271201 46.5394168,19.5055435 C46.5394168,32.133495 38.680567,39.0878016 24.4089797,39.0878016 L0.807144801,39.0878016 L0.807144801,0.0145181949 L24.4089797,0.0145181949 Z M2.66510307,1.8517804 L2.66510307,37.249739 L24.4089797,37.249739 C37.5392931,37.249739 44.6818631,31.2003587 44.6818631,19.5055435 C44.6818631,7.48721161 36.9395275,1.8517804 24.4089797,1.8517804 L2.66510307,1.8517804 Z" id="Fill-8" fill="#000000"></path>
                    </g>
                    <polygon id="Fill-11" fill="#000000" points="5.58237061 34.364139 12.5430893 34.364139 12.5430893 22.1081216 5.58237061 22.1081216"></polygon>
                    <g id="Group-16" transform="translate(4.652482, 4.673437)">
                        <path d="M8.73559986,11.2615791 C8.73559986,13.6248309 6.79935854,15.5409215 4.40980375,15.5409215 C2.02146263,15.5409215 0.0834007826,13.6248309 0.0834007826,11.2615791 C0.0834007826,8.89992785 2.02146263,6.98303694 4.40980375,6.98303694 C6.79935854,6.98303694 8.73559986,8.89992785 8.73559986,11.2615791" id="Fill-12" fill="#000000"></path>
                        <path d="M22.3930799,13.2641209 L22.3930799,15.2470356 L17.4327257,15.2470356 L17.4327257,7.28636627 L22.233075,7.28636627 L22.233075,9.26848068 L19.4381473,9.26848068 L19.4381473,10.1914133 L22.0813635,10.1914133 L22.0813635,12.1731276 L19.4381473,12.1731276 L19.4381473,13.2641209 L22.3930799,13.2641209 Z M23.3559412,15.2496365 L25.7841318,7.28296504 L28.6367095,7.28296504 L31.0640911,15.2496365 L28.9767452,15.2496365 L28.5218135,13.708481 L25.8990278,13.708481 L25.4426801,15.2496365 L23.3559412,15.2496365 Z M26.4850382,11.7269668 L27.9356009,11.7269668 L27.2723189,9.47555532 L27.1519613,9.47555532 L26.4850382,11.7269668 Z M32.0714544,7.2831651 L34.0764715,7.2831651 L34.0764715,13.2641209 L37.0477888,13.2641209 C36.2329978,2.4118093 27.6012291,0.0671642083 19.7581572,0.0671642083 L11.3960302,0.0671642083 L11.3960302,7.28736663 L12.6337925,7.28736663 C14.8904481,7.28736663 16.2924632,8.80091216 16.2924632,11.2355897 C16.2924632,13.7476951 14.9242292,15.2470356 12.6337925,15.2470356 L11.3960302,15.2470356 L11.3960302,29.6942429 L19.7581572,29.6942429 C32.5104059,29.6942429 36.9480638,23.8371318 37.1046299,15.2470356 L32.0714544,15.2470356 L32.0714544,7.2831651 Z M11.394412,9.26988119 L11.394412,13.2641209 L12.6337925,13.2641209 C13.492681,13.2641209 14.2858279,13.0186324 14.2858279,11.2355897 C14.2858279,9.49336174 13.4030701,9.26988119 12.6337925,9.26988119 L11.394412,9.26988119 Z" id="Fill-14" fill="#CC0066"></path>
                    </g>
                </g>
            </g>
        </g>
    </g>
</svg>