<?xml version="1.0" encoding="UTF-8"?>
<svg width="134px" height="84px" viewBox="0 0 134 84" version="1.1" xmlns="http://www.w3.org/2000/svg" xmlns:xlink="http://www.w3.org/1999/xlink">
    <title>Mastercard_acceptancemark_80x50</title>
    <g id="RD-4" stroke="none" stroke-width="1" fill="none" fill-rule="evenodd">
        <g id="LP---venmo---social---primary" transform="translate(-967.000000, -1489.000000)">
            <g id="Mastercard_acceptancemark_80x50" transform="translate(967.005261, 1489.000000)">
                <rect id="Rectangle" fill="#000000" x="0" y="0" width="132.39159" height="83.7921454" rx="4.581738"></rect>
                <g id="mc_symbol" transform="translate(16.758429, 11.730900)" fill-rule="nonzero">
                    <rect id="Rectangle" fill="#FF5F00" x="34.961091" y="6.91411461" width="29.2905829" height="48.0845243"></rect>
                    <path d="M37.978038,30.9606238 C37.9706835,21.5790039 42.2555184,12.7149877 49.5979316,6.92260862 C37.1243267,-2.93038543 19.2117299,-1.49521164 8.44863276,10.2195284 C-2.31446439,21.9342684 -2.31446439,39.9954731 8.44863276,51.7102132 C19.2117299,63.4249532 37.1243267,64.8601271 49.5979316,55.0071329 C42.2531818,49.2129145 37.9680851,40.3452244 37.978038,30.9606238 Z" id="Path" fill="#EB001B"></path>
                    <path d="M95.9169404,50.3974171 L95.9169404,49.0088616 L96.3394821,49.0088616 L96.3394821,48.7215742 L95.333833,48.7215742 L95.333833,49.0088616 L95.7310222,49.0088616 L95.7310222,50.3974171 L95.9169404,50.3974171 Z M97.8690825,50.3974171 L97.8690825,48.7215742 L97.5648527,48.7215742 L97.2099177,49.9186049 L96.8549827,48.7215742 L96.5507529,48.7215742 L96.5507529,50.3974171 L96.7704745,50.3974171 L96.7704745,49.1285648 L97.1000568,50.2178626 L97.3282294,50.2178626 L97.6578119,49.1285648 L97.6578119,50.3974171 L97.8690825,50.3974171 Z" id="Shape" fill="#F79E1B"></path>
                    <path d="M98.8240266,30.9606238 C98.8240266,42.6682247 92.1727326,53.3479581 81.695674,58.4641002 C71.2186153,63.5802422 58.7549062,62.2345869 49.5979316,54.9986391 C56.9371412,49.2013423 61.2222985,40.3385046 61.2222985,30.9563768 C61.2222985,21.5742491 56.9371412,12.7114113 49.5979316,6.91411461 C58.7549062,-0.321833201 71.2186153,-1.66748859 81.695674,3.44865344 C92.1727326,8.56479549 98.8240266,19.2445288 98.8240266,30.9521297 L98.8240266,30.9606238 Z" id="Path" fill="#F79E1B"></path>
                </g>
            </g>
        </g>
    </g>
</svg>