<?xml version="1.0" encoding="UTF-8"?>
<svg width="87px" height="55px" viewBox="0 0 87 55" version="1.1" xmlns="http://www.w3.org/2000/svg" xmlns:xlink="http://www.w3.org/1999/xlink">
    <title>Sofort</title>
    <g id="RD-4" stroke="none" stroke-width="1" fill="none" fill-rule="evenodd">
        <g id="LP---venmo---social---primary" transform="translate(-1197.000000, -1489.000000)">
            <g id="Sofort" transform="translate(1197.000000, 1489.000000)">
                <rect id="Rectangle" fill="#EF809F" x="0" y="0" width="86.55975" height="54.78165" rx="3.55725"></rect>
                <path d="M33.5916209,33.964623 C35.9907213,33.964623 37.8253275,32.4414259 37.8253275,30.2100758 C37.8253275,28.1390622 36.2729684,27.2438498 34.3678005,26.7093947 C33.1541379,26.3753603 32.3920707,26.1214941 32.3920707,25.30645 C32.3920707,24.6250197 32.9142279,24.0905646 33.7468568,24.0905646 C34.4524746,24.0905646 34.9746317,24.4780446 35.3556653,25.0659452 L37.3455074,23.8767826 C36.7245638,22.5807289 35.3274406,21.91266 33.8174186,21.91266 C31.4183182,21.91266 29.8941838,23.5427481 29.8941838,25.4400638 C29.8941838,26.9498995 30.853824,28.1123394 33.2105873,28.7670469 C34.4948117,29.1144428 35.3133283,29.3549476 35.3133283,30.3169668 C35.3133283,31.2255405 34.6218229,31.7867184 33.6198456,31.7867184 C32.5473066,31.7867184 31.72879,31.1320109 31.2348576,30.5307488 L29.583712,32.0940301 C30.4727904,33.2431086 31.9122506,33.964623 33.5916209,33.964623 M43.286809,33.964623 C40.746585,33.964623 38.6861812,32.0405846 38.6861812,29.7023434 C38.6861812,27.3641022 40.746585,25.4400638 43.286809,25.4400638 C45.8270329,25.4400638 47.8874368,27.3641022 47.8874368,29.7023434 C47.8874368,32.0405846 45.8270329,33.964623 43.286809,33.964623 M43.286809,31.8268025 C44.5145839,31.8268025 45.4883364,30.9048674 45.4883364,29.7023434 C45.4883364,28.4998194 44.5145839,27.5778843 43.286809,27.5778843 C42.0449217,27.5778843 41.0852816,28.4998194 41.0852816,29.7023434 C41.0852816,30.9182288 42.0590341,31.8268025 43.286809,31.8268025 M53.8287384,24.1974556 L53.8287384,22.0596352 L53.4759295,22.0596352 C50.554672,22.0596352 49.1152117,23.9035053 49.1152117,26.0680486 L49.1152117,33.750841 L51.5143121,33.750841 L51.5143121,30.3837737 C51.5143121,29.2614179 52.4316152,28.4597352 53.7581766,28.4330125 L53.7581766,26.2684692 C52.8126488,26.2684692 52.0505816,26.5356968 51.5143121,27.0701519 L51.5143121,26.2016624 C51.5143121,24.7853563 52.4880646,24.1440101 53.8287384,24.1974556 M59.0644222,33.964623 C56.5241982,33.964623 54.4637944,32.0405846 54.4637944,29.7023434 C54.4637944,27.3641022 56.5241982,25.4400638 59.0644222,25.4400638 C61.6046461,25.4400638 63.66505,27.3641022 63.66505,29.7023434 C63.66505,32.0405846 61.6046461,33.964623 59.0644222,33.964623 M59.0644222,31.8268025 C60.3063094,31.8268025 61.2659496,30.9048674 61.2659496,29.7023434 C61.2659496,28.4998194 60.2921971,27.5778843 59.0644222,27.5778843 C57.8366473,27.5778843 56.8628948,28.4998194 56.8628948,29.7023434 C56.8628948,30.9182288 57.8366473,31.8268025 59.0644222,31.8268025 M67.2919253,26.5891423 L67.2919253,25.6672072 L64.9633867,25.6672072 L64.9633867,33.750841 L67.3624871,33.750841 L67.3624871,30.0631006 C67.3624871,28.7269628 68.195116,27.9787256 69.6345763,27.9787256 L69.6345763,25.5469548 C68.5479249,25.5068707 67.7717454,25.8542665 67.2919253,26.5891423 M73.4166875,29.6221751 L73.4166875,27.6446912 C73.952957,28.1791463 74.7009118,28.4463739 75.660552,28.4463739 L75.660552,26.295192 C74.3622153,26.2684692 73.4166875,25.4400638 73.4166875,24.3444308 L73.4166875,23.0750999 L71.0175871,23.0750999 L71.0175871,29.7557889 C71.0175871,31.9203322 72.442935,33.7642023 75.3783049,33.7642023 L75.7311138,33.7642023 L75.7311138,31.6263818 C74.39044,31.666466 73.4166875,31.0384812 73.4166875,29.6221751 M78.5959219,33.8844547 C79.4708879,33.8844547 80.2047304,33.2030245 80.2047304,32.3612576 C80.2047304,31.5328522 79.4850003,30.8380605 78.5959219,30.8380605 C77.7068435,30.8380605 76.9871134,31.5194908 76.9871134,32.3612576 C76.9871134,33.2030245 77.7068435,33.8844547 78.5959219,33.8844547" id="Shape" fill="#FFFFFF" fill-rule="nonzero"></path>
                <g id="peace" transform="translate(5.478465, 13.147596)" fill="#FFFFFF" fill-rule="nonzero">
                    <path d="M7.08009616,20.2252017 C7.63200989,20.7666723 7.64242336,21.6517685 7.10092309,22.203652 L6.99678843,22.3181938 C6.45528816,22.8700773 5.5701435,22.8804902 5.01822977,22.3390196 L1.89418978,19.2463895 C1.02987205,18.3821191 0.915323914,17.3200037 1.45682418,16.7577074 L1.56095885,16.6431655 C2.00873791,16.1745852 2.74809404,16.1329336 3.25835391,16.5286236 C3.49786364,16.7160558 3.8519215,16.6744042 4.04977737,16.4349076 C4.23721977,16.195411 4.1955659,15.8413725 3.95605617,15.6435275 C2.98760377,14.8833861 1.60261271,14.9771021 0.748708448,15.8517854 L0.644573782,15.9663273 C-0.365532482,17.0076169 -0.167676616,18.7673963 1.09235285,20.0273567 L4.2268063,23.1512255 C5.23691257,24.1196248 6.83017296,24.0987991 7.80903883,23.099161 L7.92358696,22.9846192 C8.88162589,21.9849812 8.86079896,20.402221 7.87151962,19.4234087 C7.65283683,19.2047379 7.29877896,19.2047379 7.08009616,19.4338216 C6.85099989,19.6524925 6.85099989,20.0065309 7.08009616,20.2252017 M5.20567217,3.45002622 L6.48652856,13.9670512 C6.51776896,14.2690252 6.79893256,14.4981089 7.11133656,14.4564573 C7.41332709,14.4252186 7.64242336,14.1440704 7.60076949,13.8316836 L6.3199131,3.27300699 L6.30949963,3.21052962 C6.09081683,2.33584635 6.6323171,1.35703412 7.36125976,1.20084068 C7.76738496,1.11753751 8.19433709,1.19042779 8.53798149,1.4195115 C8.88162589,1.64859521 9.12113562,2.00263368 9.20444335,2.40873662 L11.4329252,11.9261236 C11.5058195,12.2280976 11.80781,12.4155297 12.1098005,12.3426394 C12.4117911,12.2697492 12.5992335,11.9677752 12.5263392,11.6658012 L10.3082708,2.17965291 C10.1728958,1.49240177 9.75635709,0.878040905 9.16278949,0.482350856 C8.56922189,0.0866608066 7.82986576,-0.0487068418 7.13216349,0.0970737026 C5.7575859,0.388634792 4.86202777,1.99222078 5.20567217,3.45002622" id="Shape"></path>
                    <path d="M16.9520625,15.7997209 L19.4825349,3.20011672 C19.774112,1.84644024 18.9722751,0.482350856 17.6289379,0.0866608066 C16.1293987,-0.288203451 14.619446,0.586479816 14.2341477,2.06511105 L11.4329252,11.6553883 C11.3496175,11.9573623 11.5162329,12.2697492 11.8182235,12.3530523 C12.120214,12.4363555 12.432618,12.2697492 12.5159257,11.9677752 L15.3171483,2.36708504 C15.556658,1.48198887 16.4522161,0.950931177 17.3269473,1.16960199 C18.0767169,1.39868571 18.5453229,2.17965291 18.3787075,2.97103301 L15.8482351,15.5810501 C15.7857543,15.8830241 15.9836101,16.1849981 16.2856007,16.2474754 C16.5980047,16.2995399 16.8999952,16.1016949 16.9520625,15.7997209 M10.5894344,27.9411577 C6.58024976,27.9411577 3.23752697,25.004721 3.23752697,20.8291497 C3.23752697,20.5167628 2.98760377,20.2668533 2.67519978,20.2668533 C2.36279578,20.2668533 2.11287258,20.5167628 2.11287258,20.8291497 C2.11287258,25.6607335 5.99709563,29.0657505 10.5894344,29.0657505 C10.9018384,29.0657505 11.1517616,28.815841 11.1517616,28.5034541 C11.1517616,28.1910672 10.9018384,27.9411577 10.5894344,27.9411577 M8.61087576,18.1217967 C8.52756802,18.4341836 8.32971216,18.7153318 8.05896202,18.892351 L7.93400042,18.9652413 C7.28836549,19.4025829 6.4136343,19.2359766 5.9762687,18.5903771 L3.51869057,14.9354505 C2.85222871,13.9149867 2.93553644,12.8528713 3.58117137,12.4051168 L3.69571951,12.3218136 C4.52879684,11.8428204 5.2264991,12.2072718 5.9450283,13.2589743 L7.99648122,16.3203657 C8.17351016,16.5806881 8.51715456,16.6431655 8.77749122,16.4765592 C9.03782789,16.3099528 9.10030869,15.9559144 8.93369322,15.695592 L6.88224029,12.6342005 C5.86172056,11.1555693 4.61210457,10.4995568 3.10215191,11.3742401 L2.94594991,11.4783691 C1.73798778,12.3009879 1.59219925,14.0711802 2.58147858,15.5602243 L5.0390567,19.2255637 C5.83048016,20.3813952 7.39250016,20.6833692 8.54839496,19.902402 L8.67335656,19.8190988 C9.16278949,19.4858861 9.51684735,18.9860671 9.68346282,18.4133578 C9.76677055,18.1113838 9.58974162,17.8094099 9.28775109,17.7261067 C8.99617402,17.6428035 8.69418349,17.8198227 8.61087576,18.1217967" id="Shape"></path>
                    <path d="M12.3284833,19.9752922 C11.1621751,20.6313047 10.4332324,21.8496135 10.3499247,23.7135219 C10.3290978,24.0259088 10.5686075,24.2862312 10.8810115,24.307057 C11.1934155,24.3174699 11.4537521,24.0883862 11.4745791,23.7759993 C11.5578868,22.0891101 12.2139352,21.1831882 13.2656953,20.7874981 C13.8280225,20.5792402 14.4424171,20.5375886 14.9839173,20.5896531 L15.1192924,20.6104789 C15.8378216,20.7458465 16.0669179,19.6733182 15.3483887,19.5067119 L11.0268,18.5383126 C9.00658749,17.9864291 8.69418349,17.2367006 9.06906829,15.987153 C9.23568375,15.4456825 9.55850122,15.1645343 10.0687611,15.0499924 C10.401992,14.9771021 10.7664633,14.987515 11.1205212,15.0499924 C11.2246559,15.0708182 11.2975501,15.0812311 11.3287905,15.091644 L17.8892745,16.6223397 L18.0142361,16.6639913 C18.1183708,16.7056429 18.2329189,16.788946 18.3474671,16.9034879 C18.7848327,17.3720682 19.0347559,18.2571644 18.9097943,19.7149698 C18.4828421,24.8172889 16.1085717,27.9828093 10.4644728,27.9307448 C10.1520688,27.9307448 9.90214562,28.1806543 9.90214562,28.4826283 C9.90214562,28.7950152 10.1520688,29.0449247 10.4540593,29.0449247 C16.7854471,29.0969892 19.5554292,25.4212369 20.0240352,19.798273 C20.1698237,18.0489065 19.8470063,16.8514234 19.1701309,16.1329336 C18.7952461,15.7372435 18.3995344,15.5498114 18.0975439,15.5081598 L11.6099541,13.9982899 C11.5683003,13.987877 11.4641656,13.9566383 11.3183771,13.9358125 C10.8289441,13.8525094 10.3186843,13.8420965 9.81883789,13.9462254 C8.94410669,14.1440704 8.27764482,14.6959539 7.99648122,15.6539404 C7.45498096,17.4553714 8.02772162,18.8715252 10.7560499,19.6108409 L12.3284833,19.9752922 Z" id="Path"></path>
                </g>
            </g>
        </g>
    </g>
</svg>