<?xml version="1.0" encoding="UTF-8"?>
<svg width="133px" height="84px" viewBox="0 0 133 84" version="1.1" xmlns="http://www.w3.org/2000/svg" xmlns:xlink="http://www.w3.org/1999/xlink">
    <title>Visa_acceptancemark_80x50</title>
    <g id="RD-4" stroke="none" stroke-width="1" fill="none" fill-rule="evenodd">
        <g id="LP---venmo---social---primary" transform="translate(-824.000000, -1489.000000)">
            <g id="Visa_acceptancemark_80x50" transform="translate(824.000000, 1489.000000)">
                <rect id="Rectangle" fill="#1D1C45" x="0" y="0" width="132.39159" height="83.7921454" rx="4.581738"></rect>
                <g id="Visa" transform="translate(15.082586, 25.137644)" fill="#FFFFFF" fill-rule="nonzero">
                    <path d="M51.4455687,0.590854329 L44.5028773,32.8958387 L36.1060355,32.8958387 L43.051613,0.590854329 L51.4455687,0.590854329 Z M86.768489,21.4493529 L91.1881833,9.31960182 L93.7323456,21.4493529 L86.768489,21.4493529 Z M96.1370094,32.8958387 L103.90226,32.8958387 L97.1240809,0.590854329 L89.9581922,0.590854329 C88.3462641,0.590854329 86.9873571,1.5231018 86.3841468,2.96001738 L73.7864787,32.8958387 L82.6003729,32.8958387 L84.3517993,28.0694111 L95.1225193,28.0694111 L96.1370094,32.8958387 Z M74.222772,22.3476047 C74.2602923,13.8223523 62.3788765,13.3516799 62.4606514,9.54224952 C62.486627,8.38400266 63.5949177,7.15249753 66.021709,6.83696026 C67.2228384,6.68086746 70.5404952,6.55972795 74.2987747,8.28201565 L75.7740906,1.43212747 C73.7523257,0.701938773 71.1542883,0 67.9188872,0 C59.6211374,0 53.7795214,4.39166605 53.7328615,10.6779922 C53.6775431,15.3310897 57.9014586,17.9238582 61.0839464,19.4709005 C64.3535004,21.0538539 65.4502465,22.0694147 65.4382207,23.4852625 C65.4136884,25.6538032 62.8291196,26.6095125 60.412911,26.6468598 C56.1918816,26.7124572 53.7420011,25.5111171 51.7899855,24.6056832 L50.2699339,31.6849224 C52.2296459,32.581259 55.8508322,33.3626806 59.6062254,33.4009855 C68.4268539,33.4009855 74.1953534,29.0658194 74.222772,22.3476047 L74.222772,22.3476047 Z M39.4487059,0.590854329 L25.8456873,32.8958387 L16.9711835,32.8958387 L10.2771842,7.11419256 C9.87071473,5.52692991 9.51812048,4.94421538 8.28235702,4.2767511 C6.26444044,3.18553796 2.93187165,2.16279498 0,1.52741111 L0.197702912,0.590854329 L14.4847447,0.590854329 C16.3044774,0.590854329 17.9428621,1.79602479 18.3560659,3.88412506 L21.8916291,22.578392 L30.6300016,0.590854329 L39.4487059,0.590854329 L39.4487059,0.590854329 Z" id="Fill-1"></path>
                </g>
            </g>
        </g>
    </g>
</svg>